<svg id="svg" version="1.1" xmlns="http://www.w3.org/2000/svg" xmlns:xlink="http://www.w3.org/1999/xlink" width="400" height="74.44523979957052" viewBox="0, 0, 400,74.44523979957052"><g id="svgg"><path id="path0" d="M382.750 45.732 C 382.658 45.766,382.246 45.886,381.833 45.999 C 381.421 46.112,380.933 46.264,380.750 46.337 C 380.416 46.470,379.823 46.696,379.667 46.750 C 379.239 46.898,378.809 47.129,378.220 47.528 C 377.837 47.788,377.447 48.000,377.353 48.000 C 377.260 48.000,377.123 48.094,377.050 48.209 C 376.977 48.324,376.617 48.642,376.250 48.914 C 375.472 49.493,374.167 50.836,374.167 51.058 C 374.167 51.142,374.035 51.333,373.875 51.483 C 373.526 51.808,373.194 52.308,373.059 52.708 C 373.005 52.869,372.895 53.000,372.814 53.000 C 372.733 53.000,372.667 53.150,372.667 53.333 C 372.667 53.517,372.600 53.667,372.519 53.667 C 372.437 53.667,372.319 53.938,372.257 54.271 C 372.195 54.603,372.083 54.996,372.008 55.146 C 371.326 56.508,371.129 57.783,371.221 60.250 C 371.312 62.673,371.462 63.833,371.684 63.833 C 371.766 63.833,371.833 64.016,371.833 64.240 C 371.833 64.464,371.908 64.693,372.000 64.750 C 372.092 64.807,372.167 64.961,372.167 65.092 C 372.167 65.432,372.720 66.667,372.873 66.667 C 372.943 66.667,373.000 66.784,373.000 66.928 C 373.000 67.184,373.795 68.363,374.042 68.472 C 374.110 68.503,374.167 68.615,374.168 68.722 C 374.171 68.959,375.231 70.084,376.086 70.757 C 376.431 71.028,376.824 71.358,376.959 71.490 C 377.753 72.262,381.240 73.833,382.160 73.833 C 382.428 73.833,382.693 73.908,382.750 74.000 C 382.877 74.206,388.667 74.229,388.667 74.023 C 388.667 73.944,389.023 73.836,389.458 73.782 C 389.894 73.729,390.565 73.531,390.950 73.343 C 391.335 73.154,391.760 73.000,391.895 73.000 C 392.029 73.000,392.164 72.944,392.194 72.875 C 392.225 72.806,392.512 72.619,392.833 72.459 C 393.666 72.045,394.064 71.781,394.217 71.542 C 394.290 71.427,394.447 71.333,394.566 71.333 C 394.857 71.333,396.857 69.377,397.255 68.704 C 397.429 68.408,397.631 68.167,397.703 68.167 C 397.775 68.167,397.833 68.084,397.833 67.982 C 397.833 67.881,398.021 67.575,398.250 67.303 C 398.479 67.031,398.667 66.705,398.667 66.580 C 398.667 66.455,398.811 66.104,398.988 65.801 C 399.164 65.498,399.363 64.950,399.428 64.583 C 399.494 64.217,399.631 63.863,399.732 63.798 C 400.011 63.618,399.988 56.135,399.708 56.042 C 399.594 56.003,399.500 55.792,399.500 55.573 C 399.500 55.161,399.026 53.815,398.829 53.667 C 398.768 53.621,398.672 53.394,398.615 53.163 C 398.559 52.932,398.360 52.579,398.173 52.379 C 397.986 52.178,397.833 51.968,397.833 51.912 C 397.833 51.856,397.740 51.705,397.625 51.577 C 397.180 51.081,397.000 50.844,397.000 50.753 C 397.000 50.666,395.501 49.185,394.930 48.708 C 394.793 48.594,394.603 48.500,394.507 48.500 C 394.411 48.500,394.333 48.441,394.333 48.368 C 394.333 48.295,393.960 48.014,393.503 47.743 C 393.047 47.472,392.672 47.194,392.670 47.125 C 392.668 47.056,392.521 47.000,392.343 47.000 C 392.165 47.000,391.973 46.924,391.915 46.831 C 391.857 46.737,391.746 46.701,391.667 46.750 C 391.588 46.799,391.476 46.763,391.418 46.669 C 391.361 46.576,391.168 46.500,390.990 46.500 C 390.812 46.500,390.667 46.425,390.667 46.333 C 390.667 46.242,390.485 46.167,390.264 46.167 C 390.042 46.167,389.831 46.077,389.795 45.968 C 389.733 45.783,383.213 45.564,382.750 45.732 " stroke="none" fill="#ec747c" fill-rule="evenodd"></path><path id="path1" d="M1.550 41.500 C 1.550 42.004,1.581 42.210,1.619 41.958 C 1.658 41.706,1.658 41.294,1.619 41.042 C 1.581 40.790,1.550 40.996,1.550 41.500 M64.542 48.750 C 64.544 49.117,64.578 49.247,64.618 49.040 C 64.658 48.832,64.656 48.532,64.615 48.373 C 64.573 48.214,64.540 48.383,64.542 48.750 M64.548 51.583 C 64.549 52.042,64.581 52.209,64.620 51.956 C 64.658 51.703,64.657 51.328,64.617 51.123 C 64.578 50.918,64.546 51.125,64.548 51.583 " stroke="none" fill="#2c2c2c" fill-rule="evenodd"></path><path id="path2" d="M5.667 0.250 C 5.667 0.388,5.592 0.500,5.500 0.500 C 5.407 0.500,5.333 0.944,5.333 1.500 C 5.333 2.056,5.259 2.500,5.167 2.500 C 5.075 2.500,5.000 2.917,5.000 3.428 C 5.000 3.938,4.931 4.485,4.846 4.643 C 4.762 4.801,4.639 5.921,4.573 7.132 C 4.507 8.343,4.389 9.333,4.310 9.333 C 4.231 9.333,4.167 9.896,4.167 10.583 C 4.167 11.271,4.099 11.833,4.017 11.833 C 3.863 11.833,3.663 13.954,3.612 16.125 C 3.596 16.790,3.526 17.334,3.456 17.333 C 3.386 17.333,3.337 18.024,3.349 18.869 C 3.362 19.862,3.304 20.426,3.185 20.466 C 3.067 20.505,3.000 21.097,3.000 22.097 C 3.000 22.960,2.933 23.667,2.851 23.667 C 2.769 23.667,2.646 25.242,2.579 27.167 C 2.512 29.092,2.392 30.667,2.312 30.667 C 2.232 30.667,2.167 31.529,2.167 32.583 C 2.167 33.750,2.101 34.500,2.000 34.500 C 1.898 34.500,1.833 35.324,1.833 36.639 C 1.833 37.815,1.777 38.835,1.708 38.905 C 1.640 38.975,1.571 39.793,1.556 40.724 C 1.503 43.962,1.304 47.251,1.153 47.408 C 1.069 47.495,1.000 48.549,1.000 49.750 C 1.000 50.951,0.932 52.005,0.849 52.092 C 0.766 52.179,0.646 54.387,0.582 57.000 C 0.518 59.612,0.406 61.825,0.334 61.917 C 0.261 62.008,0.147 64.540,0.081 67.542 L -0.039 73.000 8.064 73.000 L 16.167 73.000 16.167 72.167 C 16.167 71.708,16.242 71.333,16.334 71.333 C 16.441 71.333,16.498 69.817,16.494 67.084 C 16.489 64.323,16.551 62.717,16.669 62.496 C 16.769 62.309,16.840 61.578,16.827 60.870 C 16.776 57.998,17.051 48.570,17.192 48.394 C 17.275 48.290,17.335 46.992,17.325 45.511 C 17.315 44.009,17.377 42.728,17.467 42.617 C 17.555 42.507,17.678 40.429,17.742 38.000 C 17.806 35.543,17.925 33.559,18.012 33.528 C 18.228 33.450,18.206 32.106,17.985 31.885 C 17.855 31.755,17.855 31.673,17.985 31.592 C 18.085 31.531,18.167 31.035,18.167 30.490 C 18.167 29.941,18.241 29.500,18.333 29.500 C 18.433 29.500,18.500 28.833,18.500 27.833 C 18.500 26.169,18.716 25.622,18.928 26.750 C 18.988 27.071,19.104 27.333,19.185 27.333 C 19.267 27.333,19.333 27.521,19.333 27.750 C 19.333 27.979,19.400 28.167,19.481 28.167 C 19.644 28.167,19.884 28.799,19.844 29.125 C 19.830 29.240,19.897 29.333,19.993 29.333 C 20.088 29.333,20.167 29.447,20.167 29.586 C 20.167 29.833,20.486 30.502,20.683 30.667 C 20.737 30.712,20.835 30.975,20.900 31.250 C 21.065 31.947,21.391 32.667,21.541 32.667 C 21.610 32.667,21.667 32.804,21.667 32.972 C 21.667 33.140,21.723 33.334,21.792 33.403 C 21.860 33.472,21.923 33.578,21.930 33.639 C 21.983 34.068,22.228 34.667,22.351 34.667 C 22.433 34.667,22.500 34.817,22.500 35.000 C 22.500 35.183,22.565 35.333,22.645 35.333 C 22.725 35.333,22.839 35.633,22.897 36.000 C 22.956 36.367,23.078 36.667,23.169 36.667 C 23.259 36.667,23.333 36.817,23.333 37.000 C 23.333 37.183,23.408 37.333,23.500 37.333 C 23.592 37.333,23.667 37.506,23.667 37.718 C 23.667 37.930,23.777 38.249,23.911 38.426 C 24.046 38.604,24.158 38.881,24.161 39.042 C 24.164 39.202,24.242 39.333,24.333 39.333 C 24.425 39.333,24.500 39.521,24.500 39.750 C 24.500 39.979,24.572 40.167,24.659 40.167 C 24.747 40.167,24.867 40.429,24.928 40.750 C 24.988 41.071,25.104 41.333,25.185 41.333 C 25.267 41.333,25.333 41.521,25.333 41.750 C 25.333 41.979,25.402 42.167,25.487 42.167 C 25.571 42.167,25.689 42.391,25.750 42.665 C 25.810 42.939,25.928 43.206,26.013 43.258 C 26.097 43.310,26.167 43.536,26.167 43.760 C 26.167 43.984,26.242 44.167,26.333 44.167 C 26.425 44.167,26.500 44.279,26.500 44.417 C 26.500 44.554,26.566 44.667,26.646 44.667 C 26.726 44.667,26.840 44.910,26.900 45.207 C 27.037 45.893,27.377 46.667,27.541 46.667 C 27.610 46.667,27.667 46.812,27.667 46.990 C 27.667 47.168,27.733 47.355,27.814 47.405 C 27.896 47.455,28.012 47.760,28.072 48.081 C 28.132 48.403,28.253 48.667,28.341 48.667 C 28.428 48.667,28.500 48.812,28.500 48.990 C 28.500 49.168,28.566 49.355,28.648 49.405 C 28.729 49.455,28.845 49.760,28.905 50.081 C 28.966 50.403,29.087 50.667,29.174 50.667 C 29.262 50.667,29.333 50.854,29.333 51.083 C 29.333 51.313,29.408 51.500,29.500 51.500 C 29.592 51.500,29.667 51.650,29.667 51.833 C 29.667 52.017,29.738 52.167,29.826 52.167 C 29.913 52.167,30.034 52.430,30.095 52.752 C 30.155 53.074,30.271 53.378,30.352 53.428 C 30.434 53.479,30.500 53.660,30.500 53.832 C 30.500 54.004,30.659 54.195,30.855 54.257 C 31.135 54.346,31.161 54.401,30.980 54.516 C 30.829 54.612,30.818 54.662,30.949 54.664 C 31.058 54.666,31.119 54.815,31.084 54.996 C 31.049 55.178,31.091 55.370,31.177 55.423 C 31.263 55.476,31.333 55.665,31.333 55.843 C 31.333 56.021,31.408 56.167,31.500 56.167 C 31.592 56.167,31.667 56.317,31.667 56.500 C 31.667 56.683,31.735 56.833,31.819 56.833 C 31.902 56.833,32.021 57.133,32.083 57.500 C 32.145 57.867,32.246 58.167,32.307 58.167 C 32.408 58.167,32.544 58.442,32.924 59.417 C 32.996 59.600,33.064 59.788,33.075 59.833 C 33.087 59.879,33.224 60.198,33.381 60.542 C 33.538 60.885,33.784 61.448,33.928 61.792 C 34.483 63.120,34.542 63.257,34.662 63.500 C 34.768 63.714,35.645 63.756,40.748 63.794 C 47.062 63.840,47.048 63.842,47.243 63.035 C 47.396 62.402,47.727 61.667,47.859 61.667 C 47.921 61.667,48.021 61.367,48.083 61.000 C 48.145 60.633,48.264 60.333,48.348 60.333 C 48.432 60.333,48.500 60.183,48.500 60.000 C 48.500 59.817,48.575 59.667,48.667 59.667 C 48.758 59.667,48.833 59.521,48.833 59.343 C 48.833 59.165,48.900 58.979,48.981 58.928 C 49.062 58.878,49.178 58.574,49.239 58.252 C 49.299 57.930,49.420 57.667,49.508 57.667 C 49.595 57.667,49.667 57.517,49.667 57.333 C 49.667 57.150,49.742 57.000,49.833 57.000 C 49.925 57.000,50.000 56.813,50.000 56.583 C 50.000 56.354,50.072 56.167,50.159 56.167 C 50.247 56.167,50.367 55.904,50.428 55.583 C 50.488 55.262,50.604 55.000,50.685 55.000 C 50.767 55.000,50.833 54.819,50.833 54.597 C 50.833 54.376,50.912 54.168,51.007 54.136 C 51.103 54.105,51.205 53.858,51.233 53.589 C 51.262 53.320,51.371 53.071,51.476 53.036 C 51.581 53.001,51.667 52.791,51.667 52.569 C 51.667 52.348,51.724 52.167,51.794 52.167 C 51.968 52.167,52.500 50.910,52.500 50.499 C 52.500 50.316,52.557 50.167,52.627 50.167 C 52.801 50.167,53.333 48.910,53.333 48.499 C 53.333 48.316,53.390 48.167,53.459 48.167 C 53.585 48.167,53.753 47.833,54.254 46.583 C 54.401 46.217,54.666 45.599,54.844 45.210 C 55.021 44.822,55.167 44.461,55.167 44.408 C 55.167 44.355,55.354 43.902,55.583 43.401 C 55.813 42.900,56.000 42.417,56.000 42.328 C 56.000 42.239,56.075 42.167,56.167 42.167 C 56.258 42.167,56.334 42.035,56.334 41.875 C 56.335 41.715,56.447 41.369,56.584 41.106 C 56.721 40.843,56.833 40.525,56.833 40.398 C 56.833 40.271,56.900 40.167,56.981 40.167 C 57.063 40.167,57.181 39.895,57.243 39.563 C 57.360 38.937,57.641 38.329,57.899 38.142 C 57.981 38.083,58.007 37.876,57.956 37.683 C 57.906 37.491,57.927 37.372,58.004 37.419 C 58.193 37.536,58.327 37.290,58.372 36.745 C 58.393 36.497,58.505 36.257,58.621 36.212 C 58.738 36.168,58.833 35.989,58.833 35.816 C 58.833 35.642,58.908 35.500,59.000 35.500 C 59.241 35.500,59.205 34.877,58.958 34.777 C 58.834 34.727,58.867 34.688,59.042 34.680 C 59.202 34.673,59.333 34.554,59.333 34.417 C 59.333 34.279,59.408 34.167,59.500 34.167 C 59.592 34.167,59.667 34.017,59.667 33.833 C 59.667 33.650,59.742 33.500,59.833 33.500 C 59.925 33.500,60.000 33.313,60.000 33.083 C 60.000 32.854,60.072 32.667,60.159 32.667 C 60.247 32.667,60.367 32.404,60.428 32.083 C 60.488 31.762,60.604 31.500,60.685 31.500 C 60.767 31.500,60.833 31.400,60.833 31.278 C 60.833 31.156,61.021 30.688,61.249 30.237 C 61.478 29.786,61.666 29.322,61.666 29.206 C 61.667 28.992,62.001 28.319,62.183 28.167 C 62.237 28.121,62.335 27.858,62.400 27.583 C 62.803 25.883,63.167 25.797,63.167 27.403 C 63.167 28.083,63.236 28.664,63.321 28.694 C 63.405 28.725,63.493 29.200,63.516 29.750 C 63.539 30.300,63.638 30.805,63.737 30.872 C 63.860 30.956,63.852 30.996,63.714 30.997 C 63.467 31.001,63.622 36.521,63.873 36.686 C 63.960 36.742,64.021 37.812,64.010 39.080 C 64.000 40.340,64.063 41.458,64.151 41.565 C 64.311 41.757,64.473 45.580,64.545 50.861 C 64.566 52.388,64.640 53.695,64.708 53.764 C 64.777 53.833,64.833 55.522,64.833 57.518 C 64.833 59.758,64.897 61.186,65.000 61.250 C 65.104 61.314,65.167 62.946,65.167 65.593 C 65.167 68.309,65.227 69.833,65.333 69.833 C 65.433 69.833,65.500 70.472,65.500 71.417 L 65.500 73.000 73.750 73.000 L 82.000 73.000 82.000 72.347 C 82.000 71.988,81.933 71.669,81.851 71.639 C 81.769 71.608,81.649 69.221,81.585 66.333 C 81.520 63.446,81.400 61.012,81.317 60.925 C 81.234 60.838,81.167 59.699,81.167 58.393 C 81.167 57.088,81.102 55.980,81.023 55.931 C 80.943 55.882,80.823 53.796,80.756 51.296 C 80.689 48.796,80.562 46.661,80.473 46.553 C 80.384 46.445,80.316 45.413,80.322 44.261 C 80.328 42.974,80.268 42.167,80.166 42.167 C 80.064 42.167,80.000 41.328,80.000 40.000 C 80.000 38.808,79.935 37.833,79.856 37.833 C 79.777 37.833,79.658 36.090,79.592 33.958 C 79.526 31.827,79.403 30.012,79.319 29.925 C 79.235 29.838,79.167 28.999,79.167 28.060 C 79.167 27.121,79.101 26.312,79.020 26.263 C 78.940 26.213,78.819 24.783,78.752 23.085 C 78.685 21.387,78.564 19.956,78.482 19.905 C 78.400 19.855,78.333 19.143,78.333 18.323 C 78.333 17.441,78.265 16.833,78.167 16.833 C 78.075 16.833,78.000 16.641,78.000 16.407 C 78.000 16.114,77.935 16.017,77.792 16.098 C 77.625 16.192,77.625 16.171,77.792 15.991 C 78.028 15.736,78.077 14.068,77.852 13.928 C 77.771 13.878,77.650 12.710,77.583 11.333 C 77.517 9.956,77.396 8.788,77.314 8.738 C 77.233 8.688,77.167 8.164,77.167 7.573 C 77.167 6.983,77.102 6.500,77.024 6.500 C 76.945 6.500,76.827 5.585,76.762 4.467 C 76.696 3.348,76.573 2.303,76.488 2.144 C 76.403 1.985,76.333 1.441,76.333 0.934 L 76.333 0.012 68.435 0.003 L 60.538 -0.006 60.422 0.454 C 60.359 0.707,60.257 0.952,60.195 0.998 C 60.077 1.088,59.498 2.149,58.512 4.083 C 58.184 4.725,57.860 5.275,57.792 5.306 C 57.723 5.336,57.667 5.428,57.667 5.511 C 57.667 5.593,57.361 6.318,56.988 7.122 C 55.860 9.553,55.594 10.079,55.439 10.190 C 55.357 10.248,55.342 10.379,55.405 10.481 C 55.468 10.583,55.440 10.667,55.343 10.667 C 55.246 10.667,55.167 10.817,55.167 11.000 C 55.167 11.183,55.092 11.333,55.000 11.333 C 54.908 11.333,54.833 11.446,54.833 11.583 C 54.833 11.721,54.767 11.833,54.685 11.833 C 54.604 11.833,54.488 12.096,54.428 12.417 C 54.367 12.737,54.247 13.000,54.159 13.000 C 54.072 13.000,54.000 13.150,54.000 13.333 C 54.000 13.517,53.925 13.667,53.833 13.667 C 53.742 13.667,53.667 13.812,53.667 13.990 C 53.667 14.168,53.590 14.361,53.497 14.418 C 53.404 14.476,53.368 14.588,53.417 14.667 C 53.465 14.746,53.429 14.857,53.336 14.915 C 53.243 14.973,53.167 15.165,53.167 15.343 C 53.167 15.521,53.092 15.667,53.000 15.667 C 52.908 15.667,52.833 15.779,52.833 15.917 C 52.833 16.054,52.762 16.167,52.674 16.167 C 52.587 16.167,52.466 16.429,52.406 16.750 C 52.345 17.071,52.230 17.333,52.148 17.333 C 52.067 17.333,52.000 17.521,52.000 17.750 C 52.000 17.979,51.943 18.167,51.873 18.167 C 51.739 18.167,51.167 19.383,51.167 19.668 C 51.167 19.759,51.092 19.833,51.000 19.833 C 50.908 19.833,50.833 19.979,50.833 20.157 C 50.833 20.335,50.767 20.521,50.686 20.572 C 50.604 20.622,50.488 20.926,50.428 21.248 C 50.368 21.570,50.247 21.833,50.159 21.833 C 50.072 21.833,50.000 21.983,50.000 22.167 C 50.000 22.350,49.925 22.500,49.833 22.500 C 49.742 22.500,49.667 22.604,49.667 22.731 C 49.667 22.858,49.555 23.177,49.418 23.439 C 49.281 23.702,49.168 24.042,49.168 24.194 C 49.167 24.347,49.107 24.497,49.034 24.528 C 48.870 24.596,48.222 25.971,48.073 26.565 C 48.013 26.804,47.897 27.000,47.815 27.000 C 47.734 27.000,47.667 27.146,47.667 27.323 C 47.667 27.501,47.600 27.688,47.519 27.738 C 47.438 27.789,47.322 28.093,47.261 28.415 C 47.201 28.737,47.080 29.000,46.992 29.000 C 46.905 29.000,46.833 29.146,46.833 29.323 C 46.833 29.501,46.758 29.693,46.667 29.750 C 46.575 29.807,46.500 29.992,46.500 30.163 C 46.500 30.333,46.412 30.501,46.306 30.537 C 46.199 30.573,46.105 30.869,46.097 31.196 C 46.088 31.598,46.016 31.764,45.875 31.710 C 45.741 31.659,45.667 31.787,45.667 32.066 C 45.667 32.304,45.595 32.500,45.508 32.500 C 45.420 32.500,45.299 32.763,45.239 33.085 C 45.178 33.407,45.062 33.711,44.981 33.762 C 44.900 33.812,44.833 33.999,44.833 34.177 C 44.833 34.354,44.766 34.500,44.685 34.500 C 44.561 34.500,44.316 35.099,44.264 35.528 C 44.256 35.589,44.194 35.695,44.125 35.764 C 44.056 35.833,44.000 36.026,44.000 36.194 C 44.000 36.362,43.943 36.500,43.874 36.500 C 43.710 36.500,43.370 37.274,43.233 37.960 C 43.174 38.257,43.078 38.500,43.020 38.500 C 42.962 38.500,42.830 38.706,42.727 38.958 C 42.534 39.430,42.301 40.019,42.250 40.167 C 42.199 40.314,41.966 40.904,41.773 41.375 C 41.670 41.627,41.529 41.833,41.459 41.833 C 41.390 41.833,41.333 41.998,41.333 42.199 C 41.333 42.672,40.847 42.109,40.839 41.625 C 40.836 41.465,40.758 41.333,40.667 41.333 C 40.575 41.333,40.500 41.175,40.500 40.982 C 40.500 40.770,40.418 40.662,40.292 40.710 C 40.147 40.765,40.081 40.583,40.074 40.114 C 40.069 39.742,39.975 39.408,39.866 39.372 C 39.756 39.335,39.667 39.162,39.667 38.986 C 39.667 38.810,39.592 38.667,39.500 38.667 C 39.408 38.667,39.333 38.509,39.333 38.317 C 39.333 38.125,39.210 37.732,39.060 37.442 C 38.557 36.477,38.500 36.339,38.500 36.086 C 38.500 35.947,38.428 35.833,38.341 35.833 C 38.253 35.833,38.132 35.570,38.072 35.248 C 38.012 34.926,37.896 34.622,37.814 34.572 C 37.733 34.521,37.667 34.335,37.667 34.157 C 37.667 33.979,37.592 33.833,37.500 33.833 C 37.408 33.833,37.333 33.727,37.333 33.597 C 37.333 33.467,37.255 33.335,37.159 33.303 C 37.063 33.271,36.948 32.946,36.903 32.581 C 36.858 32.216,36.749 31.892,36.661 31.861 C 36.572 31.831,36.500 31.699,36.500 31.569 C 36.500 31.440,36.425 31.333,36.333 31.333 C 36.242 31.333,36.167 31.184,36.167 31.001 C 36.167 30.590,35.635 29.333,35.461 29.333 C 35.391 29.333,35.333 29.146,35.333 28.917 C 35.333 28.688,35.267 28.500,35.185 28.500 C 35.104 28.500,34.988 28.238,34.928 27.917 C 34.867 27.596,34.747 27.333,34.659 27.333 C 34.572 27.333,34.500 27.146,34.500 26.917 C 34.500 26.688,34.433 26.500,34.352 26.500 C 34.270 26.500,34.155 26.238,34.094 25.917 C 34.034 25.596,33.913 25.333,33.826 25.333 C 33.738 25.333,33.667 25.188,33.667 25.010 C 33.667 24.832,33.592 24.640,33.500 24.583 C 33.408 24.527,33.333 24.335,33.333 24.157 C 33.333 23.979,33.258 23.833,33.167 23.833 C 33.075 23.833,33.000 23.740,32.999 23.625 C 32.999 23.510,32.811 23.048,32.583 22.597 C 32.354 22.146,32.167 21.715,32.167 21.640 C 32.167 21.376,31.587 20.167,31.461 20.167 C 31.391 20.167,31.333 20.063,31.333 19.936 C 31.333 19.809,31.221 19.490,31.084 19.227 C 30.947 18.965,30.835 18.619,30.834 18.458 C 30.834 18.298,30.758 18.167,30.667 18.167 C 30.575 18.167,30.500 18.054,30.500 17.917 C 30.500 17.779,30.425 17.667,30.333 17.667 C 30.242 17.667,30.166 17.535,30.166 17.375 C 30.165 17.215,30.053 16.869,29.916 16.606 C 29.779 16.343,29.667 16.025,29.667 15.898 C 29.667 15.771,29.592 15.667,29.500 15.667 C 29.408 15.667,29.333 15.517,29.333 15.333 C 29.333 15.150,29.262 15.000,29.174 15.000 C 29.087 15.000,28.966 14.737,28.906 14.417 C 28.845 14.096,28.730 13.833,28.648 13.833 C 28.567 13.833,28.500 13.721,28.500 13.583 C 28.500 13.446,28.433 13.333,28.352 13.333 C 28.270 13.333,28.155 13.071,28.094 12.750 C 28.034 12.429,27.913 12.167,27.826 12.167 C 27.738 12.167,27.667 12.067,27.667 11.945 C 27.667 11.823,27.479 11.354,27.251 10.903 C 27.022 10.452,26.834 9.990,26.834 9.875 C 26.834 9.760,26.758 9.667,26.667 9.667 C 26.575 9.667,26.500 9.517,26.500 9.333 C 26.500 9.150,26.425 9.000,26.333 9.000 C 26.242 9.000,26.167 8.887,26.167 8.750 C 26.167 8.612,26.100 8.500,26.019 8.500 C 25.937 8.500,25.821 8.237,25.761 7.917 C 25.701 7.596,25.580 7.333,25.492 7.333 C 25.405 7.333,25.333 7.183,25.333 7.000 C 25.333 6.817,25.258 6.667,25.167 6.667 C 25.075 6.667,25.000 6.592,25.000 6.501 C 25.000 6.217,24.428 5.000,24.294 5.000 C 24.224 5.000,24.167 4.887,24.167 4.750 C 24.167 4.612,24.100 4.500,24.019 4.500 C 23.937 4.500,23.821 4.237,23.761 3.917 C 23.701 3.596,23.580 3.333,23.492 3.333 C 23.405 3.333,23.333 3.183,23.333 3.000 C 23.333 2.817,23.258 2.667,23.167 2.667 C 23.075 2.667,23.000 2.592,23.000 2.501 C 23.000 2.217,22.428 1.000,22.294 1.000 C 22.224 1.000,22.167 0.887,22.167 0.750 C 22.167 0.612,22.092 0.500,22.000 0.500 C 21.908 0.500,21.833 0.388,21.833 0.250 C 21.833 0.031,20.824 0.000,13.750 0.000 C 6.676 0.000,5.667 0.031,5.667 0.250 M193.761 6.315 C 193.711 6.397,192.919 6.518,192.001 6.583 C 191.084 6.649,190.333 6.770,190.333 6.851 C 190.333 6.933,189.921 7.000,189.417 7.000 C 188.912 7.000,188.500 7.075,188.500 7.167 C 188.500 7.258,188.088 7.333,187.583 7.333 C 187.079 7.333,186.667 7.397,186.667 7.475 C 186.667 7.553,186.310 7.624,185.875 7.633 C 184.558 7.658,183.167 7.855,183.167 8.015 C 183.167 8.099,183.017 8.167,182.833 8.167 C 182.454 8.167,182.288 62.183,182.667 62.417 C 182.758 62.473,182.833 62.890,182.833 63.343 C 182.833 63.796,182.898 64.167,182.977 64.167 C 183.056 64.167,183.163 64.524,183.214 64.961 C 183.296 65.651,183.885 67.089,184.186 67.333 C 184.242 67.379,184.341 67.585,184.405 67.792 C 184.470 67.998,184.592 68.167,184.678 68.167 C 184.763 68.167,184.833 68.245,184.833 68.340 C 184.833 68.436,184.927 68.627,185.042 68.765 C 185.555 69.384,186.027 69.833,186.163 69.833 C 186.244 69.833,186.353 69.966,186.404 70.128 C 186.456 70.290,186.761 70.565,187.082 70.738 C 187.404 70.911,187.667 71.116,187.667 71.193 C 187.667 71.270,187.817 71.333,188.000 71.333 C 188.183 71.333,188.333 71.402,188.333 71.487 C 188.333 71.571,188.558 71.690,188.833 71.750 C 189.108 71.810,189.333 71.929,189.333 72.013 C 189.333 72.098,189.483 72.167,189.667 72.167 C 189.850 72.167,190.000 72.242,190.000 72.333 C 190.000 72.425,190.188 72.500,190.417 72.500 C 190.646 72.500,190.833 72.568,190.833 72.651 C 190.833 72.734,191.208 72.854,191.666 72.917 C 192.125 72.980,192.542 73.099,192.593 73.182 C 192.644 73.265,192.976 73.333,193.329 73.333 C 193.683 73.333,193.997 73.409,194.028 73.500 C 194.081 73.660,200.770 74.021,201.042 73.879 C 201.110 73.843,201.167 73.485,201.167 73.083 C 201.167 72.682,201.235 72.311,201.318 72.260 C 201.401 72.208,201.522 71.454,201.588 70.583 C 201.653 69.712,201.772 69.000,201.853 69.000 C 201.934 69.000,202.000 68.625,202.000 68.167 C 202.000 67.673,202.075 67.333,202.183 67.333 C 202.299 67.333,202.344 67.028,202.308 66.500 C 202.276 66.042,202.306 65.667,202.375 65.667 C 202.444 65.667,202.500 65.254,202.500 64.750 C 202.500 64.246,202.575 63.833,202.667 63.833 C 202.940 63.833,202.855 63.044,202.570 62.934 C 202.425 62.879,201.900 62.833,201.403 62.833 C 200.906 62.833,200.500 62.758,200.500 62.667 C 200.500 62.575,200.275 62.500,200.000 62.500 C 199.725 62.500,199.500 62.425,199.500 62.333 C 199.500 62.242,199.350 62.167,199.167 62.167 C 198.983 62.167,198.833 62.100,198.833 62.018 C 198.833 61.936,198.651 61.824,198.428 61.768 C 198.061 61.676,197.261 60.983,196.697 60.268 C 196.576 60.115,196.435 59.730,196.384 59.412 C 196.332 59.094,196.225 58.833,196.145 58.833 C 196.065 58.833,196.000 58.463,196.000 58.010 C 196.000 57.557,195.925 57.140,195.833 57.083 C 195.723 57.015,195.667 48.332,195.667 31.573 L 195.667 6.167 194.760 6.167 C 194.261 6.167,193.812 6.234,193.761 6.315 M229.569 6.331 C 229.479 6.421,228.695 6.540,227.827 6.594 C 226.960 6.649,226.179 6.762,226.092 6.847 C 226.005 6.931,225.573 7.000,225.133 7.000 C 224.693 7.000,224.333 7.075,224.333 7.167 C 224.333 7.258,223.921 7.333,223.417 7.333 C 222.912 7.333,222.500 7.403,222.500 7.488 C 222.500 7.574,222.144 7.643,221.708 7.643 C 220.861 7.642,219.322 7.865,218.708 8.076 L 218.333 8.206 218.333 35.339 C 218.333 54.152,218.387 62.490,218.508 62.531 C 218.605 62.563,218.707 63.080,218.736 63.681 C 218.766 64.282,218.874 64.932,218.978 65.126 C 219.082 65.319,219.167 65.633,219.167 65.822 C 219.167 66.012,219.224 66.167,219.294 66.167 C 219.418 66.167,220.000 67.374,220.000 67.631 C 220.000 67.702,220.150 67.868,220.333 68.000 C 220.517 68.132,220.667 68.331,220.667 68.442 C 220.667 68.716,222.310 70.369,222.969 70.758 C 223.261 70.931,223.500 71.131,223.500 71.203 C 223.500 71.275,223.612 71.333,223.750 71.333 C 223.887 71.333,224.000 71.400,224.000 71.481 C 224.000 71.563,224.262 71.679,224.583 71.739 C 224.904 71.799,225.167 71.920,225.167 72.008 C 225.167 72.095,225.317 72.167,225.500 72.167 C 225.683 72.167,225.833 72.242,225.833 72.333 C 225.833 72.425,226.015 72.500,226.236 72.500 C 226.458 72.500,226.664 72.570,226.694 72.655 C 226.725 72.741,227.086 72.849,227.497 72.896 C 227.907 72.942,228.270 73.060,228.302 73.157 C 228.335 73.254,228.686 73.333,229.083 73.333 C 229.481 73.333,229.831 73.407,229.861 73.498 C 229.913 73.650,236.610 74.028,236.859 73.893 C 236.920 73.860,237.022 73.120,237.088 72.250 C 237.153 71.379,237.272 70.667,237.353 70.667 C 237.434 70.667,237.500 70.292,237.500 69.833 C 237.500 69.375,237.567 69.000,237.649 69.000 C 237.730 69.000,237.851 68.250,237.917 67.333 C 237.982 66.417,238.103 65.667,238.185 65.667 C 238.266 65.667,238.333 65.254,238.333 64.750 C 238.333 64.246,238.408 63.833,238.500 63.833 C 238.774 63.833,238.689 63.044,238.403 62.934 C 238.258 62.879,237.733 62.833,237.236 62.833 C 236.740 62.833,236.333 62.758,236.333 62.667 C 236.333 62.575,236.127 62.493,235.875 62.485 C 235.623 62.477,235.042 62.252,234.583 61.986 C 234.125 61.720,233.627 61.458,233.477 61.403 C 233.326 61.349,233.066 61.048,232.897 60.735 C 232.729 60.423,232.533 60.167,232.462 60.167 C 232.391 60.167,232.333 60.060,232.333 59.931 C 232.333 59.801,232.255 59.668,232.160 59.637 C 232.065 59.605,231.942 59.034,231.886 58.367 C 231.830 57.701,231.720 57.116,231.642 57.068 C 231.564 57.020,231.500 45.547,231.500 31.573 L 231.500 6.167 230.617 6.167 C 230.131 6.167,229.659 6.241,229.569 6.331 M108.667 7.173 C 108.667 7.261,108.479 7.333,108.250 7.333 C 108.021 7.333,107.833 7.413,107.833 7.510 C 107.833 7.607,107.761 7.641,107.672 7.586 C 107.479 7.468,106.743 7.829,106.183 8.317 C 105.963 8.510,105.700 8.667,105.598 8.667 C 105.289 8.667,104.100 10.089,103.892 10.708 C 103.839 10.869,103.728 11.000,103.647 11.000 C 103.566 11.000,103.500 11.181,103.500 11.403 C 103.500 11.624,103.406 11.837,103.292 11.875 C 103.136 11.927,103.083 12.646,103.083 14.714 C 103.083 16.707,103.142 17.542,103.292 17.692 C 103.406 17.806,103.500 18.035,103.500 18.200 C 103.500 18.365,103.557 18.500,103.626 18.500 C 103.695 18.500,103.853 18.727,103.975 19.005 C 104.261 19.651,105.549 21.000,105.879 21.000 C 106.018 21.000,106.172 21.106,106.221 21.235 C 106.271 21.365,106.579 21.567,106.906 21.685 C 107.233 21.804,107.500 21.960,107.500 22.033 C 107.500 22.107,107.683 22.167,107.907 22.167 C 108.131 22.167,108.360 22.242,108.417 22.333 C 108.477 22.432,109.474 22.500,110.843 22.500 C 112.281 22.500,113.167 22.436,113.167 22.333 C 113.167 22.242,113.392 22.167,113.667 22.167 C 113.942 22.167,114.167 22.098,114.167 22.013 C 114.167 21.929,114.392 21.810,114.667 21.750 C 114.942 21.690,115.167 21.571,115.167 21.487 C 115.167 21.402,115.325 21.333,115.518 21.333 C 115.767 21.333,115.840 21.258,115.770 21.075 C 115.714 20.930,115.741 20.860,115.832 20.916 C 116.027 21.037,117.833 19.236,117.833 18.920 C 117.833 18.796,117.913 18.668,118.011 18.635 C 118.108 18.603,118.231 18.259,118.283 17.871 C 118.335 17.484,118.445 17.167,118.527 17.167 C 118.610 17.167,118.668 16.121,118.657 14.833 C 118.646 13.550,118.578 12.500,118.507 12.500 C 118.435 12.500,118.337 12.147,118.288 11.715 C 118.230 11.195,118.082 10.834,117.850 10.647 C 117.657 10.491,117.500 10.263,117.499 10.140 C 117.499 9.900,116.110 8.500,115.872 8.500 C 115.794 8.500,115.584 8.366,115.406 8.203 C 114.942 7.776,113.938 7.333,113.433 7.333 C 113.195 7.333,113.000 7.261,113.000 7.172 C 113.000 7.076,112.122 7.011,110.833 7.011 C 109.558 7.012,108.667 7.079,108.667 7.173 M152.677 26.614 C 151.618 26.650,150.671 26.761,150.547 26.864 C 150.423 26.966,149.881 27.036,149.341 27.020 C 148.801 27.004,148.311 27.068,148.253 27.162 C 148.195 27.256,147.851 27.333,147.490 27.333 C 147.129 27.333,146.833 27.400,146.833 27.480 C 146.833 27.561,146.271 27.680,145.584 27.745 C 144.898 27.809,144.293 27.930,144.241 28.014 C 144.189 28.098,143.931 28.167,143.667 28.167 C 143.402 28.167,143.140 28.242,143.083 28.333 C 143.027 28.425,142.797 28.500,142.573 28.500 C 142.350 28.500,142.167 28.576,142.167 28.669 C 142.167 28.765,141.954 28.801,141.677 28.752 C 141.407 28.704,141.141 28.741,141.084 28.833 C 141.027 28.925,140.797 29.000,140.573 29.000 C 140.350 29.000,140.167 29.075,140.167 29.167 C 140.167 29.258,139.978 29.333,139.748 29.333 C 139.517 29.333,139.199 29.404,139.039 29.490 C 138.880 29.576,138.544 29.690,138.292 29.743 L 137.833 29.840 137.833 51.587 L 137.833 73.333 144.417 73.333 L 151.000 73.333 151.000 56.019 L 151.000 38.706 151.375 38.605 C 151.581 38.550,152.031 38.504,152.375 38.502 C 152.719 38.501,153.000 38.425,153.000 38.333 C 153.000 38.242,153.304 38.167,153.677 38.167 C 154.169 38.167,154.321 38.110,154.235 37.958 C 154.141 37.792,154.163 37.792,154.342 37.958 C 154.503 38.107,155.341 38.167,157.283 38.167 C 158.805 38.167,160.000 38.233,160.000 38.318 C 160.000 38.402,160.637 38.523,161.417 38.588 C 162.196 38.653,162.833 38.772,162.833 38.853 C 162.833 38.934,163.096 39.000,163.417 39.000 C 163.737 39.000,164.000 39.075,164.000 39.167 C 164.000 39.258,164.367 39.333,164.816 39.333 C 165.743 39.333,165.597 39.649,166.026 36.708 C 166.136 35.952,166.288 35.333,166.363 35.333 C 166.438 35.333,166.500 34.996,166.500 34.583 C 166.500 34.171,166.568 33.833,166.652 33.833 C 166.735 33.833,166.857 33.196,166.921 32.417 C 166.986 31.637,167.106 31.000,167.186 31.000 C 167.267 31.000,167.333 30.704,167.333 30.343 C 167.333 29.982,167.408 29.640,167.500 29.583 C 167.834 29.377,167.700 28.167,167.343 28.167 C 167.165 28.167,166.977 28.098,166.925 28.013 C 166.873 27.929,166.343 27.807,165.748 27.744 C 165.153 27.680,164.667 27.562,164.667 27.481 C 164.667 27.400,164.292 27.333,163.833 27.333 C 163.375 27.333,163.000 27.258,163.000 27.167 C 163.000 27.075,162.567 27.000,162.033 27.000 C 161.502 27.000,160.995 26.931,160.908 26.848 C 160.724 26.670,155.461 26.521,152.677 26.614 M269.500 26.672 C 267.864 26.989,267.659 27.044,267.571 27.186 C 267.521 27.267,267.302 27.333,267.083 27.333 C 266.865 27.333,266.643 27.404,266.589 27.490 C 266.536 27.577,266.156 27.698,265.746 27.759 C 265.336 27.821,265.000 27.938,265.000 28.019 C 265.000 28.100,264.887 28.167,264.750 28.167 C 264.612 28.167,264.500 28.233,264.500 28.315 C 264.500 28.396,264.237 28.512,263.917 28.572 C 263.596 28.633,263.333 28.753,263.333 28.841 C 263.333 28.928,263.183 29.000,263.000 29.000 C 262.817 29.000,262.667 29.061,262.667 29.136 C 262.667 29.211,262.363 29.442,261.993 29.651 C 261.622 29.859,261.138 30.210,260.917 30.431 C 260.696 30.652,260.437 30.833,260.341 30.833 C 260.116 30.833,257.000 33.971,257.000 34.197 C 257.000 34.292,256.813 34.516,256.583 34.696 C 256.354 34.877,256.167 35.151,256.167 35.305 C 256.167 35.460,256.023 35.676,255.848 35.785 C 255.673 35.895,255.480 36.213,255.418 36.492 C 255.357 36.771,255.238 37.000,255.153 37.000 C 255.069 37.000,255.000 37.082,255.000 37.183 C 255.000 37.283,254.845 37.583,254.655 37.849 C 254.466 38.116,254.368 38.333,254.439 38.333 C 254.509 38.333,254.477 38.423,254.367 38.533 C 254.257 38.643,254.167 38.868,254.167 39.033 C 254.167 39.198,254.110 39.333,254.041 39.333 C 253.862 39.333,253.500 40.202,253.386 40.908 C 253.332 41.238,253.224 41.548,253.144 41.597 C 253.065 41.646,253.000 41.869,253.000 42.093 C 253.000 42.317,252.925 42.500,252.833 42.500 C 252.742 42.500,252.667 42.756,252.667 43.069 C 252.667 43.383,252.589 43.665,252.495 43.696 C 252.399 43.728,252.287 44.525,252.240 45.502 C 252.195 46.463,252.085 47.275,251.995 47.306 C 251.794 47.375,251.773 53.833,251.975 53.833 C 252.052 53.833,252.165 54.636,252.225 55.617 C 252.285 56.598,252.409 57.476,252.500 57.567 C 252.592 57.659,252.667 57.939,252.667 58.190 C 252.667 58.441,252.742 58.693,252.833 58.750 C 252.925 58.807,253.000 59.074,253.000 59.343 C 253.000 59.613,253.066 59.833,253.148 59.833 C 253.229 59.833,253.346 60.171,253.408 60.583 C 253.470 60.996,253.591 61.333,253.677 61.333 C 253.763 61.333,253.833 61.521,253.833 61.750 C 253.833 61.979,253.900 62.167,253.981 62.167 C 254.062 62.167,254.183 62.335,254.250 62.542 C 254.317 62.748,254.392 62.954,254.417 63.000 C 254.441 63.046,254.516 63.252,254.584 63.458 C 254.651 63.665,254.772 63.833,254.853 63.833 C 254.934 63.833,255.000 63.946,255.000 64.083 C 255.000 64.221,255.067 64.333,255.149 64.333 C 255.230 64.333,255.340 64.502,255.392 64.708 C 255.445 64.915,255.711 65.346,255.984 65.667 C 256.257 65.987,256.691 66.499,256.949 66.804 C 257.206 67.108,257.512 67.446,257.628 67.554 C 257.744 67.662,258.269 68.181,258.794 68.707 C 259.320 69.234,259.844 69.665,259.959 69.666 C 260.075 69.666,260.332 69.854,260.531 70.083 C 260.730 70.312,260.986 70.500,261.100 70.500 C 261.213 70.500,261.332 70.578,261.364 70.674 C 261.395 70.770,261.589 70.861,261.794 70.876 C 261.999 70.892,262.167 70.983,262.167 71.079 C 262.167 71.249,263.331 71.833,263.668 71.833 C 263.759 71.833,263.833 71.908,263.833 72.000 C 263.833 72.092,263.983 72.167,264.167 72.167 C 264.350 72.167,264.500 72.242,264.500 72.333 C 264.500 72.425,264.688 72.500,264.917 72.500 C 265.146 72.500,265.333 72.570,265.333 72.656 C 265.333 72.743,265.672 72.864,266.085 72.926 C 266.499 72.988,266.878 73.105,266.929 73.186 C 266.979 73.267,267.188 73.333,267.393 73.333 C 267.599 73.333,267.840 73.406,267.929 73.495 C 268.018 73.584,268.651 73.707,269.337 73.768 C 270.022 73.829,270.688 73.961,270.815 74.063 C 271.130 74.313,281.645 74.302,281.805 74.052 C 281.866 73.955,282.723 73.822,283.708 73.755 C 284.694 73.689,285.542 73.567,285.593 73.484 C 285.644 73.401,285.982 73.333,286.343 73.333 C 286.704 73.333,287.000 73.274,287.000 73.201 C 287.000 73.128,287.506 72.977,288.125 72.866 C 289.886 72.548,290.167 72.473,290.167 72.314 C 290.167 72.233,290.354 72.167,290.583 72.167 C 290.813 72.167,291.000 72.100,291.000 72.019 C 291.000 71.937,291.262 71.821,291.583 71.761 C 292.165 71.652,292.486 70.551,292.020 70.262 C 291.939 70.213,291.820 69.458,291.754 68.586 C 291.689 67.714,291.568 66.958,291.484 66.907 C 291.401 66.856,291.333 66.448,291.333 66.000 C 291.333 65.552,291.268 65.146,291.188 65.097 C 291.109 65.048,290.989 64.315,290.923 63.468 C 290.857 62.622,290.703 61.787,290.581 61.612 C 290.458 61.438,290.403 61.179,290.457 61.038 C 290.542 60.818,290.415 60.795,289.572 60.882 C 289.031 60.938,288.562 61.063,288.530 61.159 C 288.498 61.255,288.268 61.333,288.019 61.333 C 287.770 61.333,287.495 61.402,287.408 61.485 C 287.254 61.634,285.795 61.935,284.375 62.112 C 283.985 62.161,283.667 62.268,283.667 62.350 C 283.667 62.433,283.217 62.500,282.667 62.500 C 282.111 62.500,281.667 62.574,281.667 62.667 C 281.667 62.772,280.389 62.833,278.167 62.833 C 275.944 62.833,274.667 62.772,274.667 62.667 C 274.667 62.575,274.367 62.500,274.000 62.500 C 273.633 62.500,273.333 62.425,273.333 62.333 C 273.333 62.242,273.113 62.167,272.843 62.167 C 272.574 62.167,272.309 62.096,272.256 62.010 C 272.203 61.923,271.823 61.802,271.413 61.741 C 271.002 61.679,270.667 61.562,270.667 61.481 C 270.667 61.400,270.554 61.333,270.417 61.333 C 270.279 61.333,270.167 61.263,270.167 61.178 C 270.167 61.092,270.008 60.972,269.813 60.910 C 269.619 60.849,269.233 60.581,268.955 60.316 C 268.678 60.050,268.398 59.833,268.334 59.833 C 268.136 59.833,267.500 59.221,267.500 59.030 C 267.500 58.930,267.313 58.661,267.083 58.432 C 266.854 58.203,266.666 57.955,266.666 57.883 C 266.666 57.810,266.478 57.381,266.249 56.930 C 266.021 56.479,265.833 55.935,265.833 55.722 C 265.833 55.508,265.758 55.333,265.667 55.333 C 265.575 55.333,265.500 55.183,265.500 55.000 C 265.500 54.669,265.611 54.667,280.000 54.667 C 294.242 54.667,294.500 54.661,294.500 54.343 C 294.500 54.165,294.575 53.973,294.667 53.917 C 294.771 53.852,294.833 52.252,294.833 49.667 C 294.833 47.082,294.771 45.481,294.667 45.417 C 294.575 45.360,294.500 44.868,294.500 44.323 C 294.500 43.774,294.426 43.333,294.333 43.333 C 294.242 43.333,294.167 43.000,294.167 42.593 C 294.167 42.186,294.102 41.813,294.022 41.764 C 293.942 41.714,293.825 41.216,293.762 40.656 C 293.681 39.943,293.585 39.663,293.438 39.719 C 293.292 39.775,293.251 39.655,293.300 39.316 C 293.339 39.051,293.296 38.833,293.205 38.833 C 293.113 38.833,292.987 38.496,292.925 38.083 C 292.864 37.671,292.743 37.333,292.656 37.333 C 292.570 37.333,292.500 37.218,292.500 37.078 C 292.500 36.938,292.388 36.780,292.251 36.727 C 292.114 36.675,292.049 36.556,292.106 36.464 C 292.163 36.372,292.141 36.248,292.058 36.190 C 291.975 36.131,291.767 35.765,291.595 35.375 C 291.423 34.985,291.219 34.667,291.141 34.667 C 291.064 34.667,291.000 34.560,291.000 34.429 C 291.000 34.298,290.813 34.043,290.583 33.863 C 290.354 33.683,290.167 33.445,290.167 33.334 C 290.167 33.088,287.557 30.500,287.309 30.500 C 287.211 30.500,286.984 30.313,286.804 30.083 C 286.623 29.854,286.331 29.667,286.155 29.667 C 285.978 29.667,285.833 29.608,285.833 29.536 C 285.833 29.376,284.799 28.742,284.625 28.795 C 284.556 28.816,284.500 28.758,284.500 28.667 C 284.500 28.575,284.350 28.500,284.167 28.500 C 283.983 28.500,283.833 28.443,283.833 28.374 C 283.833 28.195,282.966 27.834,282.262 27.720 C 281.935 27.667,281.667 27.558,281.667 27.478 C 281.667 27.399,281.442 27.333,281.167 27.333 C 280.892 27.333,280.667 27.258,280.667 27.167 C 280.667 27.075,280.457 27.000,280.200 27.000 C 279.943 27.000,279.641 26.908,279.528 26.795 C 279.279 26.546,270.690 26.440,269.500 26.672 M104.333 50.500 L 104.333 73.333 110.917 73.333 L 117.500 73.333 117.500 50.500 L 117.500 27.667 110.917 27.667 L 104.333 27.667 104.333 50.500 M308.167 27.999 C 308.167 28.181,308.317 28.424,308.500 28.539 C 308.683 28.653,308.833 28.845,308.833 28.964 C 308.833 29.083,309.021 29.383,309.250 29.631 C 309.479 29.878,309.667 30.156,309.667 30.250 C 309.667 30.343,309.820 30.515,310.006 30.632 C 310.193 30.749,310.308 30.907,310.260 30.983 C 310.213 31.060,310.323 31.256,310.504 31.420 C 310.685 31.584,310.833 31.819,310.833 31.942 C 310.833 32.066,310.897 32.167,310.974 32.167 C 311.051 32.167,311.256 32.429,311.428 32.750 C 311.601 33.071,311.783 33.333,311.833 33.333 C 311.883 33.333,312.066 33.596,312.238 33.917 C 312.411 34.237,312.616 34.500,312.693 34.500 C 312.770 34.500,312.833 34.612,312.833 34.750 C 312.833 34.887,312.903 35.000,312.989 35.000 C 313.074 35.000,313.186 35.131,313.238 35.292 C 313.290 35.452,313.557 35.846,313.833 36.167 C 314.109 36.487,314.377 36.881,314.429 37.042 C 314.480 37.202,314.592 37.333,314.678 37.333 C 314.763 37.333,314.833 37.446,314.833 37.583 C 314.833 37.721,314.903 37.833,314.989 37.833 C 315.074 37.833,315.186 37.965,315.238 38.125 C 315.290 38.285,315.557 38.679,315.833 39.000 C 316.109 39.321,316.377 39.715,316.429 39.875 C 316.480 40.035,316.592 40.167,316.678 40.167 C 316.763 40.167,316.833 40.279,316.833 40.417 C 316.833 40.554,316.903 40.667,316.989 40.667 C 317.074 40.667,317.189 40.808,317.244 40.981 C 317.299 41.153,317.558 41.519,317.821 41.794 C 318.083 42.069,318.349 42.453,318.410 42.647 C 318.472 42.841,318.592 43.000,318.678 43.000 C 318.763 43.000,318.833 43.112,318.833 43.250 C 318.833 43.387,318.903 43.500,318.989 43.500 C 319.074 43.500,319.189 43.641,319.244 43.814 C 319.299 43.987,319.566 44.361,319.838 44.646 C 320.111 44.931,320.333 45.279,320.333 45.420 C 320.333 45.562,320.446 45.720,320.583 45.773 C 320.721 45.826,320.833 45.969,320.833 46.092 C 320.833 46.214,320.983 46.419,321.166 46.547 C 321.348 46.675,321.448 46.829,321.388 46.890 C 321.327 46.950,321.365 47.000,321.472 47.000 C 321.579 47.000,321.667 47.112,321.667 47.249 C 321.667 47.385,321.817 47.591,322.000 47.705 C 322.183 47.820,322.333 48.029,322.333 48.170 C 322.333 48.423,322.912 49.032,323.036 48.909 C 323.502 48.442,323.065 50.107,322.588 50.613 C 322.265 50.956,322.000 51.303,322.000 51.386 C 322.000 51.468,321.813 51.683,321.583 51.863 C 321.354 52.043,321.167 52.264,321.167 52.353 C 321.167 52.442,320.979 52.703,320.750 52.932 C 320.521 53.161,320.333 53.423,320.333 53.513 C 320.333 53.604,320.071 53.940,319.750 54.261 C 319.429 54.582,319.167 54.938,319.167 55.052 C 319.167 55.166,319.017 55.368,318.833 55.500 C 318.650 55.632,318.500 55.833,318.500 55.946 C 318.500 56.059,318.313 56.339,318.083 56.568 C 317.854 56.797,317.667 57.063,317.667 57.159 C 317.667 57.255,317.597 57.333,317.511 57.333 C 317.426 57.333,317.314 57.465,317.262 57.625 C 317.211 57.785,316.981 58.135,316.751 58.401 C 316.521 58.667,316.333 58.969,316.333 59.072 C 316.333 59.175,316.183 59.368,316.000 59.500 C 315.817 59.632,315.667 59.836,315.667 59.953 C 315.667 60.071,315.597 60.167,315.511 60.167 C 315.426 60.167,315.303 60.335,315.237 60.542 C 315.172 60.748,314.980 61.038,314.809 61.186 C 314.639 61.334,314.500 61.532,314.500 61.624 C 314.500 61.717,314.387 61.886,314.250 62.000 C 314.112 62.114,314.000 62.340,314.000 62.503 C 314.000 62.665,313.886 62.841,313.747 62.895 C 313.609 62.948,313.423 63.181,313.335 63.412 C 313.247 63.644,313.098 63.833,313.004 63.833 C 312.910 63.833,312.833 63.949,312.833 64.090 C 312.833 64.232,312.686 64.505,312.506 64.699 C 312.326 64.892,312.209 65.100,312.247 65.162 C 312.285 65.223,312.169 65.378,311.991 65.506 C 311.813 65.635,311.667 65.836,311.667 65.953 C 311.667 66.071,311.600 66.167,311.518 66.167 C 311.436 66.167,311.322 66.354,311.265 66.583 C 311.207 66.813,311.087 67.000,310.997 67.000 C 310.907 67.000,310.833 67.116,310.833 67.257 C 310.833 67.398,310.686 67.672,310.506 67.866 C 310.326 68.059,310.218 68.281,310.266 68.359 C 310.314 68.436,310.274 68.500,310.177 68.500 C 310.079 68.500,310.000 68.578,310.000 68.674 C 310.000 68.769,309.845 69.013,309.655 69.215 C 309.466 69.418,309.269 69.790,309.218 70.042 C 309.167 70.294,309.059 70.500,308.979 70.500 C 308.899 70.500,308.833 70.612,308.833 70.750 C 308.833 70.887,308.758 71.000,308.667 71.000 C 308.575 71.000,308.500 71.144,308.500 71.319 C 308.500 71.495,308.418 71.666,308.317 71.700 C 308.216 71.734,308.116 71.990,308.094 72.270 C 308.072 72.550,308.006 72.855,307.948 72.949 C 307.728 73.305,308.222 73.333,314.623 73.333 C 321.392 73.333,321.667 73.308,321.667 72.679 C 321.667 72.580,321.742 72.500,321.833 72.500 C 321.925 72.500,322.000 72.394,322.000 72.264 C 322.000 72.043,322.478 71.021,322.668 70.833 C 322.715 70.788,322.902 70.450,323.085 70.083 C 323.267 69.717,323.454 69.379,323.500 69.333 C 323.662 69.171,324.193 68.243,324.382 67.792 C 324.487 67.540,324.632 67.333,324.703 67.333 C 324.775 67.333,324.833 67.253,324.833 67.155 C 324.833 67.057,324.946 66.864,325.083 66.726 C 325.221 66.589,325.333 66.332,325.333 66.155 C 325.333 65.978,325.408 65.833,325.500 65.833 C 325.592 65.833,325.667 65.721,325.667 65.583 C 325.667 65.446,325.728 65.333,325.803 65.333 C 325.877 65.333,326.121 65.020,326.344 64.638 C 326.567 64.255,326.918 63.674,327.124 63.346 C 327.329 63.018,327.549 62.637,327.612 62.500 C 327.675 62.362,327.853 62.137,328.006 62.000 C 328.160 61.862,328.339 61.581,328.404 61.375 C 328.469 61.169,328.592 61.000,328.678 61.000 C 328.763 61.000,328.833 60.922,328.833 60.826 C 328.833 60.730,329.022 60.449,329.252 60.201 C 329.482 59.953,329.634 59.656,329.590 59.542 C 329.546 59.427,329.593 59.333,329.694 59.333 C 329.937 59.333,330.500 58.675,330.500 58.391 C 330.500 58.268,330.575 58.167,330.667 58.167 C 330.758 58.167,330.833 58.245,330.833 58.341 C 330.833 58.437,331.021 58.703,331.250 58.932 C 331.479 59.161,331.667 59.441,331.667 59.554 C 331.667 59.667,331.817 59.868,332.000 60.000 C 332.183 60.132,332.333 60.320,332.333 60.417 C 332.333 60.582,332.669 61.052,333.375 61.877 C 333.535 62.064,333.667 62.310,333.667 62.422 C 333.667 62.534,333.778 62.718,333.914 62.831 C 334.050 62.944,334.326 63.366,334.527 63.768 C 334.728 64.171,334.954 64.500,335.030 64.500 C 335.105 64.500,335.167 64.612,335.167 64.750 C 335.167 64.887,335.237 65.000,335.322 65.000 C 335.408 65.000,335.530 65.169,335.595 65.375 C 335.659 65.581,335.758 65.787,335.814 65.833 C 335.922 65.921,336.218 66.419,336.655 67.247 C 336.799 67.521,337.038 67.858,337.186 67.998 C 337.334 68.137,337.509 68.494,337.574 68.792 C 337.640 69.090,337.762 69.333,337.847 69.333 C 337.931 69.333,338.000 69.446,338.000 69.583 C 338.000 69.721,338.075 69.833,338.167 69.833 C 338.258 69.833,338.333 69.983,338.333 70.167 C 338.333 70.350,338.400 70.500,338.482 70.500 C 338.564 70.500,338.673 70.670,338.725 70.878 C 338.778 71.086,338.961 71.408,339.133 71.592 C 339.305 71.777,339.499 72.141,339.564 72.401 C 339.809 73.373,339.529 73.341,347.196 73.293 C 353.945 73.252,354.248 73.237,354.306 72.937 C 354.339 72.764,354.300 72.577,354.220 72.520 C 354.140 72.463,353.934 72.098,353.762 71.708 C 353.590 71.319,353.386 71.000,353.308 71.000 C 353.230 71.000,353.167 70.887,353.167 70.750 C 353.167 70.612,353.101 70.500,353.021 70.500 C 352.941 70.500,352.833 70.294,352.782 70.042 C 352.731 69.790,352.553 69.431,352.386 69.245 C 352.220 69.060,351.940 68.628,351.765 68.287 C 351.591 67.946,351.384 67.667,351.307 67.667 C 351.230 67.667,351.167 67.517,351.167 67.333 C 351.167 67.150,351.100 67.000,351.018 67.000 C 350.936 67.000,350.822 66.813,350.765 66.583 C 350.707 66.354,350.587 66.167,350.497 66.167 C 350.407 66.167,350.333 66.071,350.333 65.953 C 350.333 65.836,350.183 65.632,350.000 65.500 C 349.817 65.368,349.667 65.169,349.667 65.058 C 349.667 64.948,349.573 64.755,349.458 64.630 C 349.176 64.322,348.866 63.828,348.669 63.371 C 348.579 63.162,348.391 62.948,348.253 62.895 C 348.114 62.841,348.000 62.656,348.000 62.482 C 348.000 62.309,347.942 62.167,347.871 62.167 C 347.800 62.167,347.601 61.904,347.428 61.583 C 347.256 61.262,347.068 61.000,347.012 61.000 C 346.955 61.000,346.768 60.737,346.595 60.417 C 346.422 60.096,346.218 59.833,346.140 59.833 C 346.063 59.833,346.000 59.721,346.000 59.583 C 346.000 59.446,345.930 59.333,345.845 59.333 C 345.759 59.333,345.647 59.202,345.595 59.042 C 345.544 58.881,345.276 58.487,345.000 58.167 C 344.724 57.846,344.457 57.456,344.407 57.300 C 344.357 57.144,344.170 56.971,343.991 56.914 C 343.813 56.857,343.667 56.665,343.667 56.488 C 343.667 56.310,343.479 56.001,343.250 55.802 C 343.021 55.603,342.833 55.345,342.833 55.228 C 342.833 55.112,342.739 54.957,342.624 54.883 C 342.509 54.810,342.193 54.450,341.923 54.083 C 341.652 53.717,341.371 53.392,341.299 53.361 C 341.226 53.331,341.167 53.231,341.167 53.141 C 341.167 53.050,341.073 52.877,340.958 52.757 C 340.844 52.636,340.600 52.330,340.417 52.077 C 340.233 51.824,339.878 51.384,339.628 51.100 C 339.377 50.816,339.171 50.517,339.169 50.436 C 339.168 50.355,338.976 50.125,338.743 49.925 C 338.342 49.580,338.305 49.000,338.684 49.000 C 338.766 49.000,338.833 48.922,338.833 48.826 C 338.833 48.730,339.021 48.464,339.250 48.235 C 339.479 48.006,339.667 47.726,339.667 47.613 C 339.667 47.499,339.817 47.299,340.000 47.167 C 340.183 47.035,340.333 46.863,340.333 46.785 C 340.333 46.707,340.427 46.538,340.542 46.411 C 341.036 45.859,341.167 45.671,341.167 45.507 C 341.167 45.411,341.237 45.333,341.322 45.333 C 341.408 45.333,341.531 45.165,341.596 44.958 C 341.661 44.752,341.840 44.471,341.994 44.333 C 342.148 44.196,342.416 43.840,342.589 43.542 C 342.763 43.244,342.964 43.000,343.036 43.000 C 343.108 43.000,343.167 42.920,343.167 42.821 C 343.167 42.723,343.260 42.538,343.375 42.411 C 343.870 41.859,344.000 41.671,344.000 41.507 C 344.000 41.411,344.059 41.333,344.131 41.333 C 344.203 41.333,344.405 41.090,344.581 40.792 C 344.756 40.494,345.037 40.103,345.204 39.923 C 345.371 39.742,345.465 39.482,345.412 39.344 C 345.359 39.206,345.366 39.144,345.428 39.205 C 345.561 39.339,346.000 38.934,346.000 38.679 C 346.000 38.580,346.059 38.500,346.131 38.500 C 346.203 38.500,346.404 38.256,346.577 37.958 C 346.751 37.660,347.019 37.304,347.173 37.167 C 347.326 37.029,347.506 36.748,347.571 36.542 C 347.636 36.335,347.759 36.167,347.845 36.167 C 347.930 36.167,348.000 36.088,348.000 35.992 C 348.000 35.897,348.188 35.631,348.417 35.402 C 348.646 35.172,348.833 34.892,348.833 34.779 C 348.833 34.666,348.983 34.465,349.167 34.333 C 349.350 34.201,349.500 34.001,349.500 33.887 C 349.500 33.774,349.688 33.494,349.917 33.265 C 350.146 33.036,350.333 32.770,350.333 32.674 C 350.333 32.578,350.403 32.500,350.489 32.500 C 350.574 32.500,350.697 32.331,350.763 32.125 C 350.828 31.919,351.007 31.637,351.161 31.500 C 351.315 31.363,351.582 31.006,351.756 30.708 C 351.930 30.410,352.131 30.167,352.203 30.167 C 352.275 30.167,352.333 30.072,352.333 29.957 C 352.333 29.841,352.521 29.544,352.750 29.297 C 352.979 29.050,353.167 28.802,353.167 28.745 C 353.167 28.689,353.279 28.530,353.417 28.393 C 354.142 27.667,354.073 27.661,346.627 27.707 C 339.750 27.749,339.586 27.758,339.524 28.082 C 339.489 28.264,339.328 28.506,339.166 28.619 C 339.004 28.733,338.824 29.015,338.766 29.246 C 338.708 29.477,338.587 29.667,338.497 29.667 C 338.407 29.667,338.333 29.779,338.333 29.917 C 338.333 30.054,338.274 30.167,338.202 30.167 C 338.129 30.167,337.851 30.542,337.583 31.000 C 337.316 31.458,337.037 31.833,336.965 31.833 C 336.893 31.833,336.833 31.937,336.833 32.063 C 336.833 32.189,336.721 32.386,336.583 32.500 C 336.446 32.614,336.333 32.821,336.333 32.959 C 336.333 33.098,336.194 33.332,336.024 33.480 C 335.854 33.629,335.661 33.919,335.596 34.125 C 335.531 34.331,335.408 34.500,335.322 34.500 C 335.237 34.500,335.167 34.606,335.167 34.736 C 335.167 34.866,335.110 34.997,335.041 35.028 C 334.884 35.097,333.500 37.227,333.500 37.399 C 333.500 37.467,333.406 37.623,333.292 37.743 C 332.761 38.303,332.497 38.693,332.569 38.811 C 332.613 38.881,332.503 39.045,332.324 39.173 C 332.146 39.302,332.000 39.503,332.000 39.620 C 332.000 39.737,331.926 39.833,331.837 39.833 C 331.747 39.833,331.626 40.021,331.568 40.250 C 331.422 40.834,330.739 40.567,330.461 39.816 C 330.336 39.477,328.828 37.111,328.666 37.000 C 328.600 36.954,328.492 36.748,328.428 36.542 C 328.364 36.335,328.241 36.167,328.155 36.167 C 328.070 36.167,328.000 36.071,328.000 35.953 C 328.000 35.836,327.850 35.632,327.667 35.500 C 327.483 35.368,327.333 35.124,327.333 34.958 C 327.333 34.792,327.221 34.613,327.083 34.560 C 326.946 34.508,326.833 34.330,326.833 34.167 C 326.833 34.003,326.721 33.826,326.583 33.773 C 326.446 33.720,326.333 33.563,326.333 33.424 C 326.333 33.195,326.078 32.811,325.564 32.265 C 325.461 32.157,325.325 31.903,325.261 31.701 C 325.197 31.499,325.074 31.333,324.989 31.333 C 324.903 31.333,324.833 31.221,324.833 31.083 C 324.833 30.946,324.766 30.833,324.683 30.833 C 324.600 30.833,324.454 30.607,324.358 30.331 C 324.261 30.055,324.066 29.784,323.925 29.730 C 323.783 29.676,323.667 29.489,323.667 29.316 C 323.667 29.142,323.597 29.000,323.511 29.000 C 323.426 29.000,323.303 28.831,323.237 28.625 C 322.928 27.646,323.101 27.667,315.308 27.667 C 308.288 27.667,308.167 27.672,308.167 27.999 M275.667 37.679 C 276.354 37.774,276.942 37.922,276.972 38.009 C 277.003 38.096,277.172 38.167,277.347 38.167 C 277.523 38.167,277.667 38.234,277.667 38.315 C 277.667 38.397,277.854 38.511,278.083 38.568 C 278.313 38.626,278.500 38.747,278.500 38.837 C 278.500 38.926,278.576 39.000,278.668 39.000 C 278.903 39.000,279.833 39.912,279.833 40.142 C 279.833 40.246,279.983 40.424,280.167 40.539 C 280.350 40.653,280.502 40.860,280.505 40.998 C 280.508 41.137,280.621 41.396,280.755 41.574 C 280.890 41.751,281.000 42.033,281.000 42.199 C 281.000 42.364,281.075 42.500,281.167 42.500 C 281.258 42.500,281.333 42.681,281.333 42.903 C 281.333 43.124,281.399 43.331,281.478 43.361 C 281.558 43.392,281.677 43.923,281.742 44.542 L 281.860 45.667 273.680 45.667 C 265.397 45.667,264.794 45.623,265.667 45.083 C 265.758 45.027,265.833 44.722,265.833 44.407 C 265.833 44.091,265.908 43.833,266.000 43.833 C 266.092 43.833,266.167 43.650,266.167 43.427 C 266.167 43.203,266.236 42.977,266.321 42.925 C 266.405 42.872,266.526 42.593,266.590 42.304 C 266.653 42.014,266.773 41.697,266.855 41.597 C 267.143 41.250,267.833 40.151,267.837 40.034 C 267.839 39.970,268.158 39.696,268.545 39.425 C 268.933 39.155,269.310 38.836,269.383 38.717 C 269.457 38.598,269.663 38.500,269.842 38.500 C 270.020 38.500,270.167 38.425,270.167 38.333 C 270.167 38.242,270.273 38.167,270.403 38.167 C 270.533 38.167,270.664 38.091,270.695 37.998 C 270.726 37.905,271.276 37.782,271.917 37.725 C 272.559 37.668,273.196 37.556,273.333 37.476 C 273.471 37.396,273.771 37.370,274.000 37.419 C 274.229 37.467,274.979 37.584,275.667 37.679 " stroke="none" fill="#242424" fill-rule="evenodd"></path><path id="path3" d="" stroke="none" fill="#f05050" fill-rule="evenodd"></path><path id="path4" d="" stroke="none" fill="#245450" fill-rule="evenodd"></path></g></svg>