<svg id="svg" version="1.1" xmlns="http://www.w3.org/2000/svg" xmlns:xlink="http://www.w3.org/1999/xlink" width="400" height="283.54430379746833" viewBox="0, 0, 400,283.54430379746833"><g id="svgg"><path id="path0" d="M339.552 183.399 C 339.150 183.618,338.098 183.826,337.213 183.862 C 336.117 183.906,335.429 184.092,335.049 184.446 C 334.702 184.769,334.064 184.965,333.359 184.965 C 332.607 184.965,332.140 185.120,331.968 185.427 C 331.813 185.704,331.324 185.898,330.748 185.911 C 330.171 185.924,329.639 186.136,329.417 186.442 C 329.213 186.721,328.744 186.950,328.376 186.950 C 327.412 186.950,326.809 187.235,326.809 187.690 C 326.809 187.961,326.456 188.085,325.683 188.085 C 324.798 188.085,324.592 188.176,324.720 188.511 C 324.878 188.922,324.777 188.962,323.359 189.049 C 323.100 189.065,322.781 189.194,322.650 189.336 C 322.508 189.490,322.583 189.497,322.837 189.353 C 323.204 189.144,323.209 189.177,322.873 189.591 C 322.659 189.855,322.248 190.071,321.960 190.071 C 321.611 190.071,321.491 190.213,321.600 190.496 C 321.764 190.925,321.622 190.983,320.284 191.036 C 319.894 191.051,319.575 191.191,319.575 191.348 C 319.574 191.703,318.411 192.884,317.967 192.979 C 317.648 193.047,317.453 193.196,315.986 194.489 C 315.619 194.812,315.096 195.159,314.823 195.260 C 314.550 195.361,314.326 195.652,314.326 195.908 C 314.326 196.205,314.172 196.314,313.901 196.209 C 313.611 196.098,313.475 196.225,313.475 196.605 C 313.475 196.927,313.284 197.163,313.023 197.163 C 312.774 197.163,312.505 197.417,312.423 197.727 C 312.342 198.038,312.154 198.216,312.005 198.124 C 311.857 198.032,311.665 198.225,311.579 198.553 C 311.493 198.881,311.247 199.149,311.031 199.149 C 310.815 199.149,310.638 199.271,310.638 199.420 C 310.638 199.770,309.141 201.287,308.875 201.204 C 308.764 201.170,308.746 201.332,308.835 201.564 C 308.924 201.796,308.856 201.986,308.683 201.986 C 308.510 201.986,308.369 202.305,308.369 202.695 C 308.369 203.222,308.219 203.404,307.785 203.404 C 307.463 203.404,307.275 203.526,307.367 203.674 C 307.459 203.822,307.275 204.082,306.958 204.251 C 306.579 204.454,306.383 204.845,306.383 205.400 C 306.383 205.911,306.235 206.241,306.005 206.241 C 305.798 206.241,305.457 206.560,305.248 206.950 C 305.039 207.340,304.763 207.660,304.633 207.660 C 304.503 207.660,304.397 208.028,304.397 208.478 C 304.397 209.021,304.229 209.340,303.895 209.427 C 303.583 209.508,303.368 209.870,303.327 210.382 C 303.291 210.835,303.070 211.347,302.836 211.521 C 302.603 211.694,302.411 212.164,302.411 212.565 C 302.411 213.046,302.218 213.357,301.844 213.475 C 301.390 213.619,301.277 213.904,301.277 214.899 C 301.277 215.781,301.135 216.222,300.787 216.416 C 300.443 216.609,300.285 217.087,300.255 218.030 C 300.226 218.939,300.064 219.453,299.752 219.628 C 299.407 219.821,299.291 220.311,299.291 221.574 C 299.291 222.871,299.162 223.391,298.737 223.817 C 297.927 224.626,297.981 242.651,298.794 243.246 C 299.180 243.528,299.291 244.025,299.291 245.473 C 299.291 247.072,299.370 247.363,299.843 247.513 C 300.322 247.665,300.374 247.870,300.233 249.062 C 300.088 250.287,300.135 250.456,300.673 250.627 C 301.130 250.772,301.277 251.049,301.277 251.769 C 301.277 253.000,301.523 253.617,302.016 253.617 C 302.279 253.617,302.411 253.950,302.411 254.610 C 302.411 255.303,302.540 255.603,302.837 255.603 C 303.098 255.603,303.262 255.868,303.262 256.289 C 303.262 257.268,303.545 257.872,304.002 257.872 C 304.219 257.872,304.397 258.128,304.397 258.440 C 304.397 258.752,304.642 259.252,304.941 259.551 C 305.240 259.850,305.421 260.159,305.342 260.237 C 305.264 260.315,305.466 260.522,305.791 260.696 C 306.148 260.887,306.383 261.294,306.383 261.721 C 306.383 262.110,306.574 262.503,306.809 262.592 C 307.043 262.682,307.234 262.997,307.234 263.293 C 307.234 263.621,307.433 263.830,307.744 263.830 C 308.071 263.830,308.385 264.190,308.615 264.827 C 308.814 265.376,309.095 265.751,309.240 265.661 C 309.385 265.572,309.507 265.729,309.511 266.012 C 309.516 266.294,309.954 266.844,310.486 267.234 C 311.017 267.624,311.512 268.167,311.586 268.440 C 311.660 268.713,311.923 268.936,312.172 268.936 C 312.421 268.936,312.624 269.058,312.624 269.208 C 312.624 269.562,314.728 271.773,315.065 271.773 C 315.208 271.773,315.484 272.028,315.679 272.340 C 315.874 272.652,316.224 272.908,316.456 272.908 C 316.689 272.908,316.879 273.102,316.879 273.340 C 316.879 273.594,317.231 273.843,317.730 273.943 C 318.199 274.037,318.582 274.280,318.582 274.484 C 318.582 274.688,318.837 274.936,319.149 275.035 C 319.461 275.135,319.716 275.398,319.716 275.622 C 319.716 275.877,320.009 276.028,320.499 276.028 C 320.975 276.028,321.421 276.251,321.636 276.596 C 321.831 276.908,322.181 277.163,322.414 277.163 C 322.646 277.163,322.837 277.285,322.837 277.434 C 322.837 277.583,323.279 277.788,323.820 277.889 C 324.361 277.991,324.775 278.214,324.742 278.385 C 324.708 278.556,325.128 278.851,325.674 279.041 C 326.220 279.231,326.644 279.498,326.615 279.634 C 326.587 279.771,326.970 279.911,327.466 279.947 C 327.963 279.983,328.509 280.199,328.681 280.427 C 328.852 280.655,329.075 280.759,329.177 280.658 C 329.279 280.556,329.362 280.596,329.362 280.746 C 329.362 280.896,329.830 281.050,330.403 281.089 C 330.976 281.128,331.585 281.351,331.756 281.585 C 332.048 281.985,332.922 282.205,334.397 282.250 C 334.748 282.261,335.035 282.442,335.035 282.653 C 335.035 282.928,335.535 283.050,336.809 283.088 C 337.784 283.117,338.624 283.263,338.676 283.414 C 338.808 283.795,360.000 283.785,360.000 283.404 C 360.000 283.248,360.693 283.121,361.540 283.121 C 362.474 283.121,363.235 282.966,363.473 282.728 C 363.803 282.398,365.382 282.003,366.725 281.914 C 366.913 281.901,367.007 281.794,366.933 281.674 C 366.732 281.349,367.165 281.167,368.322 281.089 C 368.894 281.050,369.362 280.910,369.362 280.776 C 369.362 280.643,369.489 280.613,369.645 280.709 C 369.801 280.806,369.929 280.686,369.929 280.442 C 369.929 280.126,370.212 280.000,370.922 280.000 C 371.615 280.000,371.915 279.872,371.915 279.574 C 371.915 279.291,372.198 279.149,372.764 279.149 C 373.305 279.149,373.740 278.944,373.967 278.582 C 374.161 278.270,374.536 278.014,374.800 278.014 C 375.063 278.014,375.453 277.840,375.667 277.626 C 375.880 277.413,376.336 277.149,376.680 277.040 C 377.024 276.930,377.305 276.658,377.305 276.435 C 377.305 276.192,377.586 276.028,378.001 276.028 C 378.679 276.028,380.142 274.856,380.142 274.313 C 380.142 274.164,380.398 274.043,380.711 274.043 C 381.024 274.043,381.554 273.728,381.889 273.343 C 382.223 272.958,382.614 272.716,382.757 272.804 C 382.900 272.893,383.087 272.697,383.173 272.369 C 383.258 272.041,383.505 271.773,383.721 271.773 C 383.937 271.773,384.113 271.582,384.113 271.348 C 384.113 271.113,384.244 270.922,384.405 270.922 C 384.784 270.922,387.234 268.472,387.234 268.093 C 387.234 267.932,387.437 267.801,387.686 267.801 C 387.935 267.801,388.202 267.558,388.280 267.260 C 388.358 266.963,388.678 266.652,388.991 266.570 C 389.304 266.488,389.476 266.285,389.374 266.118 C 389.271 265.952,389.298 265.816,389.434 265.816 C 389.571 265.816,389.895 265.369,390.156 264.823 C 390.416 264.277,390.830 263.830,391.076 263.830 C 391.322 263.830,391.446 263.706,391.352 263.554 C 391.258 263.402,391.442 263.054,391.761 262.781 C 392.080 262.509,392.340 262.059,392.340 261.783 C 392.340 261.507,392.596 261.122,392.908 260.927 C 393.220 260.732,393.475 260.423,393.475 260.239 C 393.475 260.056,393.613 259.859,393.782 259.803 C 393.950 259.747,394.179 259.258,394.290 258.716 C 394.404 258.159,394.663 257.730,394.887 257.730 C 395.127 257.730,395.326 257.346,395.394 256.753 C 395.455 256.215,395.688 255.640,395.912 255.476 C 396.136 255.312,396.374 254.888,396.442 254.534 C 396.510 254.180,396.763 253.692,397.006 253.450 C 397.256 253.200,397.447 252.523,397.447 251.885 C 397.447 251.082,397.588 250.704,397.943 250.558 C 398.216 250.446,398.456 250.035,398.477 249.645 C 398.497 249.255,398.529 248.649,398.548 248.298 C 398.567 247.935,398.765 247.660,399.007 247.660 C 399.348 247.660,399.433 247.234,399.433 245.532 C 399.433 244.303,399.552 243.404,399.716 243.404 C 399.900 243.404,400.000 239.905,400.000 233.475 C 400.000 227.045,399.900 223.546,399.716 223.546 C 399.556 223.546,399.433 222.739,399.433 221.693 C 399.433 220.371,399.319 219.797,399.037 219.689 C 398.804 219.599,398.563 218.904,398.450 217.995 C 398.318 216.939,398.130 216.454,397.852 216.454 C 397.559 216.454,397.447 216.089,397.447 215.138 C 397.447 214.298,397.293 213.707,397.022 213.506 C 396.788 213.333,396.569 212.840,396.534 212.411 C 396.499 211.970,396.265 211.564,395.996 211.479 C 395.729 211.394,395.440 210.897,395.336 210.345 C 395.226 209.758,394.985 209.362,394.739 209.362 C 394.403 209.362,394.124 208.190,394.384 207.872 C 394.498 207.733,392.877 206.241,392.611 206.241 C 392.462 206.241,392.340 205.926,392.340 205.541 C 392.340 205.120,391.946 204.447,391.348 203.849 C 390.801 203.303,390.355 202.660,390.355 202.421 C 390.355 202.182,390.206 201.986,390.024 201.986 C 389.842 201.986,389.770 201.908,389.865 201.814 C 389.959 201.719,389.885 201.464,389.699 201.247 C 388.571 199.928,387.761 199.149,387.515 199.149 C 387.361 199.149,387.234 199.004,387.234 198.827 C 387.234 198.536,385.946 197.163,385.674 197.163 C 385.401 197.163,384.113 195.790,384.113 195.499 C 384.113 195.322,383.843 195.177,383.513 195.177 C 383.066 195.177,382.948 195.042,383.052 194.646 C 383.155 194.249,383.066 194.147,382.698 194.243 C 382.410 194.319,381.980 194.097,381.663 193.711 C 381.365 193.347,380.958 193.016,380.759 192.974 C 380.560 192.932,380.013 192.505,379.543 192.024 C 378.755 191.218,378.320 191.001,377.376 190.944 C 377.181 190.932,377.053 190.794,377.092 190.638 C 377.131 190.482,376.844 190.184,376.454 189.976 C 376.064 189.769,375.780 189.440,375.823 189.246 C 375.874 189.014,375.708 188.954,375.337 189.072 C 374.959 189.192,374.608 189.059,374.274 188.668 C 373.949 188.289,373.432 188.085,372.797 188.085 C 372.260 188.085,371.904 188.001,372.007 187.898 C 372.358 187.548,371.563 186.950,370.745 186.950 C 370.296 186.950,369.703 186.724,369.427 186.448 C 369.151 186.172,368.495 185.934,367.970 185.918 C 367.405 185.901,366.909 185.701,366.756 185.427 C 366.579 185.111,366.110 184.965,365.278 184.965 C 364.477 184.965,363.905 184.794,363.610 184.468 C 363.305 184.131,362.637 183.942,361.541 183.882 C 360.622 183.831,359.747 183.617,359.516 183.386 C 358.922 182.793,340.646 182.805,339.552 183.399 " stroke="none" fill="#ec747c" fill-rule="evenodd"></path><path id="path1" d="M15.680 20.426 C 15.680 21.128,15.735 21.415,15.803 21.064 C 15.871 20.713,15.871 20.138,15.803 19.787 C 15.735 19.436,15.680 19.723,15.680 20.426 M15.603 24.255 C 15.603 24.645,15.652 24.965,15.712 24.965 C 15.771 24.965,15.881 24.645,15.956 24.255 C 16.031 23.865,15.982 23.546,15.847 23.546 C 15.713 23.546,15.603 23.865,15.603 24.255 M213.155 91.064 C 213.155 92.702,213.201 93.372,213.259 92.553 C 213.316 91.734,213.316 90.394,213.259 89.574 C 213.201 88.755,213.155 89.426,213.155 91.064 M8.601 91.064 C 8.601 92.078,8.653 92.493,8.716 91.986 C 8.779 91.479,8.779 90.649,8.716 90.142 C 8.653 89.635,8.601 90.050,8.601 91.064 M102.193 179.060 C 102.254 179.246,102.488 179.447,102.713 179.507 C 103.050 179.599,103.054 179.571,102.734 179.347 C 102.407 179.118,102.407 179.052,102.734 178.922 C 102.994 178.819,102.950 178.761,102.600 178.746 C 102.314 178.733,102.131 178.875,102.193 179.060 M1.522 198.440 C 1.523 200.000,1.570 200.602,1.628 199.778 C 1.685 198.953,1.685 197.677,1.627 196.941 C 1.568 196.205,1.521 196.879,1.522 198.440 M220.194 235.957 C 220.223 239.195,220.295 241.146,220.353 240.292 C 220.412 239.439,220.611 238.553,220.797 238.323 C 221.065 237.991,221.057 237.952,220.759 238.132 C 220.452 238.316,220.400 237.597,220.475 234.214 C 220.526 231.935,220.472 230.070,220.355 230.071 C 220.238 230.071,220.165 232.720,220.194 235.957 " stroke="none" fill="#2c2c2c" fill-rule="evenodd"></path><path id="path2" d="M18.723 0.695 C 18.723 1.077,18.529 1.499,18.290 1.633 C 17.957 1.819,17.817 2.653,17.681 5.264 C 17.556 7.658,17.392 8.719,17.121 8.879 C 16.829 9.052,16.738 10.017,16.738 12.922 C 16.738 16.124,16.669 16.738,16.312 16.738 C 16.078 16.738,15.869 16.833,15.847 16.950 C 15.694 17.785,15.733 23.546,15.892 23.546 C 16.002 23.546,16.031 23.865,15.956 24.255 C 15.869 24.713,15.631 24.965,15.286 24.965 C 14.788 24.965,14.752 25.235,14.752 28.922 C 14.752 32.396,14.691 32.913,14.255 33.157 C 13.823 33.398,13.747 33.995,13.667 37.781 C 13.593 41.245,13.490 42.175,13.157 42.362 C 12.820 42.551,12.744 43.299,12.767 46.192 C 12.815 52.276,12.830 52.116,12.199 52.281 C 11.658 52.422,11.631 52.668,11.631 57.390 C 11.631 61.629,11.567 62.375,11.187 62.521 C 10.816 62.664,10.758 63.172,10.833 65.646 C 10.882 67.271,10.826 68.540,10.709 68.468 C 10.592 68.395,10.496 69.478,10.496 70.875 C 10.496 72.871,10.405 73.449,10.071 73.578 C 9.713 73.715,9.645 74.607,9.645 79.180 C 9.645 84.032,9.592 84.657,9.149 84.981 C 8.702 85.308,8.652 85.970,8.652 91.608 C 8.652 97.385,8.614 97.872,8.156 97.872 C 7.698 97.872,7.660 98.369,7.660 104.329 C 7.660 110.478,7.633 110.802,7.092 111.140 C 6.550 111.478,6.525 111.801,6.525 118.309 C 6.525 124.209,6.466 125.147,6.084 125.293 C 5.706 125.439,5.648 126.225,5.675 130.887 C 5.732 140.600,5.747 140.340,5.106 140.508 C 4.557 140.651,4.539 140.895,4.539 148.200 C 4.539 154.717,4.481 155.745,4.113 155.745 C 3.745 155.745,3.688 156.825,3.688 163.767 C 3.688 171.438,3.663 171.810,3.121 172.275 C 2.578 172.739,2.553 173.111,2.553 180.746 C 2.553 188.024,2.509 188.764,2.057 189.095 C 1.602 189.427,1.560 190.212,1.560 198.417 C 1.560 206.769,1.527 207.376,1.063 207.376 C 0.598 207.376,0.566 207.981,0.576 216.380 C 0.583 222.339,0.488 225.417,0.293 225.481 C 0.098 225.546,-0.000 229.134,-0.000 236.195 L -0.000 246.811 27.589 246.739 L 55.177 246.667 55.255 234.617 C 55.322 224.211,55.391 222.535,55.762 222.328 C 56.135 222.119,56.188 220.555,56.168 210.406 C 56.135 193.894,56.110 194.894,56.560 194.894 C 57.228 194.894,57.305 193.471,57.305 181.134 C 57.305 170.825,57.365 169.098,57.730 168.794 C 58.095 168.492,58.156 166.934,58.156 157.989 C 58.156 147.828,58.172 147.529,58.723 147.234 C 59.271 146.941,59.291 146.640,59.291 138.563 C 59.291 131.338,59.350 130.172,59.722 130.030 C 60.093 129.887,60.150 128.838,60.132 122.485 C 60.112 115.392,60.133 115.086,60.694 114.564 C 61.250 114.045,61.277 113.715,61.277 107.223 C 61.277 103.261,61.386 100.426,61.538 100.426 C 62.026 100.426,62.449 98.468,62.409 96.393 C 62.284 89.857,62.399 87.607,62.837 88.045 C 63.071 88.279,63.262 88.874,63.262 89.368 C 63.262 90.027,63.413 90.305,63.830 90.414 C 64.274 90.530,64.397 90.801,64.397 91.664 C 64.397 92.454,64.517 92.766,64.823 92.766 C 65.114 92.766,65.248 93.058,65.248 93.691 C 65.248 94.308,65.437 94.733,65.816 94.970 C 66.229 95.228,66.383 95.631,66.383 96.456 C 66.383 97.412,66.475 97.589,66.969 97.589 C 67.427 97.589,67.516 97.714,67.376 98.156 C 67.135 98.916,67.459 99.858,67.962 99.858 C 68.232 99.858,68.369 100.169,68.369 100.783 C 68.369 101.400,68.557 101.825,68.936 102.062 C 69.350 102.320,69.504 102.723,69.504 103.549 C 69.504 104.366,69.622 104.681,69.929 104.681 C 70.228 104.681,70.355 104.983,70.355 105.700 C 70.355 106.481,70.487 106.755,70.922 106.868 C 71.348 106.980,71.489 107.255,71.489 107.976 C 71.489 108.640,71.620 108.936,71.915 108.936 C 72.210 108.936,72.340 109.233,72.340 109.906 C 72.340 111.156,72.585 111.773,73.080 111.773 C 73.344 111.773,73.475 112.110,73.475 112.793 C 73.475 113.582,73.607 113.846,74.057 113.964 C 74.536 114.089,74.606 114.264,74.456 114.950 C 74.304 115.640,74.375 115.811,74.867 115.939 C 75.358 116.068,75.461 116.314,75.461 117.365 C 75.461 118.396,75.568 118.663,76.028 118.783 C 76.473 118.899,76.596 119.170,76.596 120.033 C 76.596 120.823,76.716 121.135,77.021 121.135 C 77.312 121.135,77.447 121.427,77.447 122.059 C 77.447 122.677,77.635 123.102,78.014 123.338 C 78.428 123.597,78.582 124.000,78.582 124.825 C 78.582 125.643,78.700 125.957,79.007 125.957 C 79.306 125.957,79.433 126.260,79.433 126.977 C 79.433 127.758,79.565 128.031,80.000 128.145 C 80.416 128.253,80.567 128.532,80.567 129.185 C 80.567 129.781,80.763 130.199,81.158 130.445 C 81.513 130.667,81.683 130.987,81.584 131.245 C 81.338 131.888,81.707 133.050,82.158 133.050 C 82.422 133.050,82.553 133.387,82.553 134.069 C 82.553 134.850,82.686 135.123,83.121 135.237 C 83.544 135.348,83.688 135.624,83.688 136.325 C 83.688 136.842,83.879 137.456,84.113 137.690 C 84.348 137.924,84.539 138.557,84.539 139.096 C 84.539 139.837,84.677 140.112,85.106 140.224 C 85.541 140.338,85.674 140.611,85.674 141.392 C 85.674 142.109,85.800 142.411,86.099 142.411 C 86.393 142.411,86.525 142.706,86.525 143.360 C 86.525 143.949,86.740 144.504,87.092 144.823 C 87.440 145.137,87.660 145.696,87.660 146.266 C 87.660 146.941,87.812 147.244,88.217 147.373 C 88.664 147.515,88.740 147.717,88.603 148.401 C 88.462 149.108,88.536 149.280,89.039 149.411 C 89.508 149.534,89.645 149.788,89.645 150.530 C 89.645 151.111,89.869 151.713,90.213 152.057 C 90.525 152.369,90.780 152.993,90.780 153.445 C 90.780 153.896,90.963 154.336,91.186 154.421 C 91.410 154.507,91.633 155.000,91.683 155.516 C 91.749 156.201,91.927 156.476,92.342 156.535 C 92.831 156.606,92.896 156.792,92.810 157.881 C 92.733 158.842,92.818 159.187,93.163 159.319 C 93.453 159.430,93.617 159.834,93.617 160.437 C 93.617 161.131,93.767 161.428,94.184 161.560 C 94.607 161.694,94.752 161.990,94.752 162.714 C 94.752 163.391,94.882 163.688,95.177 163.688 C 95.411 163.688,95.621 163.848,95.643 164.043 C 95.665 164.238,95.707 164.652,95.736 164.965 C 95.766 165.277,95.811 165.755,95.838 166.028 C 95.865 166.301,96.078 166.525,96.312 166.525 C 96.607 166.525,96.738 166.821,96.738 167.487 C 96.738 168.065,96.902 168.513,97.147 168.607 C 97.373 168.694,97.642 169.218,97.746 169.772 C 97.855 170.352,98.103 170.780,98.329 170.780 C 98.608 170.780,98.723 171.160,98.723 172.083 C 98.723 173.148,98.827 173.414,99.291 173.535 C 99.718 173.647,99.858 173.922,99.858 174.652 C 99.858 175.251,100.020 175.683,100.284 175.784 C 100.531 175.879,100.709 176.303,100.709 176.794 C 100.709 177.403,100.869 177.684,101.277 177.790 C 101.744 177.912,101.844 178.177,101.844 179.291 C 101.844 180.403,101.944 180.669,102.410 180.791 C 102.869 180.911,102.943 181.098,102.805 181.788 C 102.666 182.484,102.743 182.672,103.233 182.827 C 103.682 182.970,103.830 183.250,103.830 183.960 C 103.830 184.499,103.997 184.968,104.220 185.053 C 104.434 185.136,104.697 185.788,104.804 186.502 C 104.932 187.353,105.140 187.801,105.407 187.801 C 105.687 187.801,105.816 188.123,105.816 188.821 C 105.816 189.602,105.948 189.875,106.383 189.989 C 106.805 190.099,106.950 190.376,106.950 191.067 C 106.950 191.631,107.117 192.060,107.376 192.159 C 107.659 192.268,107.801 192.714,107.801 193.493 C 107.801 194.424,107.917 194.693,108.369 194.811 C 108.785 194.920,108.936 195.198,108.936 195.857 C 108.936 196.410,109.159 196.944,109.519 197.253 C 109.897 197.576,110.042 197.942,109.931 198.291 C 109.814 198.660,109.944 198.929,110.341 199.142 C 110.793 199.384,110.922 199.733,110.922 200.719 C 110.922 201.656,111.033 201.986,111.348 201.986 C 111.612 201.986,111.773 202.254,111.773 202.695 C 111.773 203.085,112.028 203.660,112.340 203.972 C 112.655 204.286,112.908 204.917,112.908 205.388 C 112.908 205.929,113.113 206.365,113.475 206.591 C 113.879 206.843,114.043 207.252,114.043 208.012 C 114.043 208.770,114.165 209.078,114.468 209.078 C 114.767 209.078,114.894 209.380,114.894 210.097 C 114.894 210.878,115.026 211.152,115.461 211.265 C 115.886 211.376,116.028 211.652,116.028 212.362 C 116.028 212.962,116.248 213.516,116.626 213.868 C 116.955 214.174,117.138 214.563,117.033 214.733 C 116.116 216.216,115.458 216.170,137.717 216.170 L 158.232 216.170 158.403 215.532 C 158.497 215.181,158.576 214.543,158.578 214.113 C 158.580 213.611,158.733 213.333,159.007 213.333 C 159.303 213.333,159.433 213.036,159.433 212.360 C 159.433 211.635,159.578 211.340,160.000 211.206 C 160.422 211.072,160.567 210.776,160.567 210.052 C 160.567 209.355,160.694 209.078,161.014 209.078 C 161.370 209.078,161.444 208.803,161.377 207.730 C 161.302 206.524,161.360 206.373,161.923 206.292 C 162.429 206.219,162.553 206.017,162.553 205.259 C 162.553 204.682,162.719 204.253,162.979 204.153 C 163.242 204.052,163.404 203.620,163.404 203.021 C 163.404 202.291,163.544 202.015,163.972 201.904 C 164.432 201.783,164.539 201.517,164.539 200.485 C 164.539 199.454,164.646 199.187,165.106 199.067 C 165.514 198.960,165.674 198.680,165.674 198.071 C 165.674 197.580,165.852 197.155,166.099 197.061 C 166.366 196.958,166.525 196.524,166.525 195.895 C 166.525 195.228,166.657 194.894,166.920 194.894 C 167.415 194.894,167.660 194.276,167.660 193.026 C 167.660 192.354,167.790 192.057,168.085 192.057 C 168.381 192.057,168.511 191.759,168.511 191.083 C 168.511 190.358,168.656 190.063,169.078 189.929 C 169.500 189.795,169.645 189.500,169.645 188.775 C 169.645 188.099,169.775 187.801,170.071 187.801 C 170.392 187.801,170.496 187.455,170.496 186.383 C 170.496 185.154,170.572 184.965,171.064 184.965 C 171.515 184.965,171.631 184.775,171.631 184.040 C 171.631 183.422,171.820 182.997,172.199 182.761 C 172.553 182.540,172.766 182.099,172.766 181.588 C 172.766 181.123,172.949 180.700,173.191 180.607 C 173.481 180.496,173.617 180.042,173.617 179.191 C 173.617 178.177,173.725 177.910,174.184 177.790 C 174.595 177.683,174.752 177.403,174.752 176.778 C 174.752 176.276,174.945 175.807,175.213 175.657 C 175.543 175.472,175.641 175.115,175.557 174.398 C 175.475 173.696,175.543 173.437,175.784 173.529 C 176.241 173.705,176.738 172.727,176.738 171.650 C 176.738 171.066,176.877 170.780,177.163 170.780 C 177.462 170.780,177.589 170.478,177.589 169.761 C 177.589 168.980,177.721 168.706,178.156 168.593 C 178.582 168.481,178.723 168.206,178.723 167.485 C 178.723 166.903,178.947 166.301,179.291 165.957 C 179.606 165.642,179.858 165.012,179.858 164.539 C 179.858 163.947,179.997 163.688,180.313 163.688 C 180.673 163.688,180.746 163.451,180.662 162.564 C 180.571 161.610,180.641 161.429,181.128 161.359 C 181.553 161.298,181.726 161.026,181.794 160.313 C 181.845 159.783,182.080 159.156,182.316 158.920 C 182.584 158.652,182.705 158.138,182.637 157.555 C 182.547 156.786,182.631 156.605,183.108 156.537 C 183.555 156.473,183.708 156.210,183.776 155.390 C 183.834 154.694,184.005 154.326,184.272 154.326 C 184.560 154.326,184.681 153.990,184.681 153.194 C 184.681 152.369,184.835 151.965,185.248 151.707 C 185.627 151.471,185.816 151.046,185.816 150.428 C 185.816 149.827,185.954 149.504,186.211 149.504 C 186.668 149.504,186.950 148.899,186.950 147.920 C 186.950 147.499,187.115 147.234,187.376 147.234 C 187.697 147.234,187.801 146.887,187.801 145.816 C 187.801 144.586,187.877 144.397,188.369 144.397 C 188.828 144.397,188.936 144.208,188.936 143.404 C 188.936 142.711,189.065 142.411,189.362 142.411 C 189.667 142.411,189.787 142.100,189.787 141.310 C 189.787 140.447,189.910 140.176,190.355 140.060 C 190.818 139.938,190.922 139.673,190.922 138.608 C 190.922 137.639,191.031 137.305,191.348 137.305 C 191.642 137.305,191.773 137.009,191.773 136.345 C 191.773 135.624,191.914 135.348,192.340 135.237 C 192.775 135.123,192.908 134.850,192.908 134.069 C 192.908 133.390,193.039 133.050,193.300 133.050 C 193.730 133.050,194.033 132.208,194.039 130.993 C 194.041 130.490,194.194 130.213,194.468 130.213 C 194.762 130.213,194.894 129.917,194.894 129.253 C 194.894 128.532,195.035 128.256,195.461 128.145 C 195.892 128.032,196.028 127.758,196.028 127.007 C 196.028 126.390,196.188 125.957,196.454 125.855 C 196.746 125.743,196.879 125.287,196.879 124.406 C 196.879 123.310,196.963 123.121,197.447 123.121 C 197.903 123.121,198.014 122.931,198.014 122.158 C 198.014 121.564,198.177 121.133,198.440 121.032 C 198.707 120.930,198.865 120.496,198.865 119.867 C 198.865 119.200,198.997 118.865,199.260 118.865 C 199.752 118.865,200.000 118.249,200.000 117.031 C 200.000 116.333,200.145 116.057,200.567 115.946 C 200.975 115.840,201.135 115.559,201.135 114.951 C 201.135 114.459,201.313 114.035,201.560 113.940 C 201.827 113.837,201.986 113.404,201.986 112.775 C 201.986 112.111,202.118 111.773,202.378 111.773 C 202.808 111.773,203.111 110.931,203.117 109.716 C 203.119 109.214,203.272 108.936,203.546 108.936 C 203.841 108.936,203.972 108.640,203.972 107.976 C 203.972 107.255,204.113 106.980,204.539 106.868 C 204.970 106.756,205.106 106.481,205.106 105.731 C 205.106 105.113,205.266 104.680,205.532 104.578 C 205.824 104.466,205.957 104.010,205.957 103.129 C 205.957 102.033,206.041 101.844,206.525 101.844 C 206.984 101.844,207.092 101.655,207.092 100.851 C 207.092 100.191,207.225 99.858,207.487 99.858 C 207.940 99.858,208.227 99.256,208.227 98.305 C 208.227 97.944,208.418 97.576,208.652 97.486 C 208.942 97.375,209.078 96.922,209.078 96.070 C 209.078 95.057,209.186 94.790,209.645 94.670 C 210.053 94.563,210.213 94.283,210.213 93.674 C 210.213 93.183,210.391 92.758,210.638 92.663 C 210.905 92.561,211.064 92.127,211.064 91.498 C 211.064 90.831,211.196 90.496,211.459 90.496 C 211.954 90.496,212.199 89.879,212.199 88.629 C 212.199 87.514,212.889 87.274,213.208 88.279 C 213.316 88.620,213.314 91.084,213.204 93.754 C 212.990 98.905,213.143 100.709,213.790 100.709 C 214.116 100.709,214.184 101.922,214.184 107.686 C 214.184 114.424,214.204 114.668,214.752 114.811 C 215.398 114.980,215.348 114.159,215.319 124.190 C 215.303 129.870,215.361 130.814,215.735 130.958 C 216.113 131.102,216.170 132.251,216.170 139.631 C 216.170 147.900,216.186 148.142,216.738 148.287 C 217.293 148.432,217.305 148.674,217.305 159.333 C 217.305 168.758,217.362 170.253,217.730 170.394 C 218.100 170.536,218.156 172.184,218.156 182.844 C 218.156 195.322,218.196 196.028,218.896 196.028 C 219.228 196.028,219.291 198.253,219.291 210.041 C 219.291 222.234,219.346 224.074,219.716 224.216 C 220.055 224.346,220.142 224.957,220.142 227.225 C 220.142 228.790,220.238 230.071,220.355 230.071 C 220.472 230.070,220.526 231.935,220.475 234.214 C 220.400 237.597,220.452 238.316,220.759 238.132 C 221.061 237.950,221.067 237.989,220.787 238.335 C 220.560 238.616,220.413 240.130,220.362 242.715 L 220.284 246.667 248.156 246.739 L 276.028 246.811 276.024 237.377 C 276.021 227.648,275.953 226.667,275.286 226.667 C 274.845 226.667,274.868 227.289,274.893 215.849 C 274.908 209.321,274.851 208.271,274.476 208.128 C 274.102 207.984,274.042 206.888,274.039 200.080 C 274.036 191.671,273.917 190.071,273.296 190.071 C 273.020 190.071,272.908 189.668,272.908 188.676 C 272.908 187.826,272.769 187.225,272.553 187.138 C 272.270 187.024,272.270 186.991,272.553 186.973 C 273.249 186.929,273.043 173.423,272.340 172.984 C 271.795 172.643,271.773 172.322,271.773 164.746 C 271.773 157.999,271.712 156.838,271.348 156.698 C 270.984 156.559,270.922 155.444,270.922 149.067 C 270.922 141.848,270.903 141.593,270.355 141.418 C 269.722 141.218,269.716 141.103,269.786 131.135 C 269.816 126.878,269.763 126.241,269.378 126.241 C 268.990 126.241,268.936 125.400,268.936 119.335 C 268.936 112.789,268.907 112.402,268.369 111.915 C 267.833 111.430,267.801 111.041,267.801 104.941 C 267.801 99.576,267.729 98.408,267.376 98.055 C 267.029 97.708,266.950 96.685,266.950 92.538 C 266.950 87.010,266.805 85.674,266.206 85.674 C 265.888 85.674,265.816 84.646,265.816 80.142 C 265.816 74.912,265.783 74.578,265.224 74.018 C 264.666 73.461,264.634 73.141,264.668 68.507 C 264.697 64.441,264.631 63.546,264.285 63.353 C 263.946 63.163,263.850 62.143,263.778 57.954 C 263.698 53.353,263.632 52.748,263.173 52.413 C 262.711 52.076,262.660 51.573,262.679 47.579 C 262.696 43.786,262.636 43.121,262.272 43.121 C 261.909 43.121,261.844 42.450,261.844 38.697 C 261.844 34.512,261.813 34.265,261.277 34.125 C 260.739 33.984,260.709 33.738,260.709 29.470 C 260.709 25.763,260.638 24.965,260.306 24.965 C 259.981 24.965,259.884 24.210,259.809 21.111 C 259.730 17.837,259.642 17.204,259.220 16.896 C 258.794 16.585,258.723 16.042,258.723 13.089 C 258.723 10.024,258.661 9.583,258.156 9.078 C 257.652 8.574,257.589 8.132,257.589 5.106 C 257.589 2.270,257.518 1.702,257.163 1.702 C 256.879 1.702,256.738 1.418,256.738 0.851 L 256.738 0.000 230.338 -0.000 L 203.938 -0.000 204.066 0.814 C 204.165 1.441,204.087 1.621,203.728 1.595 C 203.387 1.569,203.239 1.845,203.174 2.624 C 203.105 3.458,202.967 3.688,202.536 3.688 C 202.096 3.688,201.986 3.887,201.986 4.681 C 201.986 5.374,201.857 5.674,201.560 5.674 C 201.296 5.674,201.135 5.941,201.135 6.381 C 201.135 6.780,200.888 7.241,200.567 7.442 C 200.255 7.637,200.000 8.005,200.000 8.260 C 200.000 8.516,199.813 8.880,199.585 9.069 C 199.357 9.258,199.085 9.683,198.981 10.012 C 198.876 10.342,198.616 10.786,198.402 11.000 C 198.189 11.213,198.014 11.634,198.014 11.935 C 198.014 12.236,197.752 12.744,197.432 13.064 C 197.077 13.419,196.914 13.848,197.015 14.164 C 197.130 14.526,197.007 14.726,196.604 14.832 C 196.212 14.934,196.028 15.218,196.028 15.718 C 196.028 16.123,195.773 16.709,195.461 17.021 C 195.149 17.333,194.894 17.848,194.894 18.165 C 194.894 18.482,194.702 18.815,194.468 18.905 C 194.210 19.004,194.043 19.433,194.043 19.997 C 194.043 20.688,193.897 20.965,193.475 21.075 C 193.068 21.182,192.908 21.462,192.908 22.071 C 192.908 22.537,192.733 22.985,192.519 23.067 C 192.305 23.149,192.043 23.561,191.937 23.983 C 191.832 24.405,191.560 24.935,191.334 25.161 C 191.107 25.387,190.922 25.882,190.922 26.261 C 190.922 26.640,190.672 27.200,190.367 27.506 C 189.991 27.882,189.846 28.338,189.919 28.917 C 189.979 29.388,189.942 29.761,189.837 29.746 C 189.119 29.647,188.936 29.886,188.936 30.922 C 188.936 31.868,188.842 32.057,188.369 32.057 C 187.909 32.057,187.801 32.246,187.801 33.050 C 187.801 33.743,187.673 34.043,187.376 34.043 C 187.079 34.043,186.950 34.342,186.950 35.035 C 186.950 35.839,186.842 36.028,186.383 36.028 C 185.924 36.028,185.816 36.217,185.816 37.021 C 185.816 37.679,185.683 38.014,185.422 38.014 C 185.198 38.014,184.949 38.432,184.847 38.980 C 184.747 39.511,184.477 40.017,184.248 40.106 C 184.018 40.194,183.830 40.622,183.830 41.058 C 183.830 41.555,183.608 41.988,183.233 42.222 C 182.801 42.492,182.675 42.793,182.775 43.318 C 182.878 43.859,182.778 44.077,182.379 44.182 C 182.011 44.278,181.844 44.577,181.844 45.139 C 181.844 45.589,181.589 46.213,181.277 46.525 C 180.925 46.876,180.709 47.470,180.709 48.085 C 180.709 48.779,180.581 49.078,180.284 49.078 C 179.989 49.078,179.858 49.374,179.858 50.038 C 179.858 50.759,179.717 51.035,179.291 51.146 C 178.856 51.260,178.723 51.533,178.723 52.314 C 178.723 52.995,178.593 53.333,178.329 53.333 C 178.104 53.333,177.856 53.758,177.749 54.326 C 177.638 54.921,177.397 55.319,177.150 55.319 C 176.868 55.319,176.738 55.632,176.738 56.312 C 176.738 56.971,176.605 57.305,176.343 57.305 C 175.922 57.305,175.477 58.575,175.746 59.010 C 175.835 59.153,175.647 59.530,175.329 59.848 C 174.968 60.209,174.752 60.798,174.752 61.418 C 174.752 62.222,174.644 62.411,174.184 62.411 C 173.725 62.411,173.617 62.600,173.617 63.404 C 173.617 64.098,173.489 64.397,173.191 64.397 C 172.897 64.397,172.766 64.693,172.766 65.357 C 172.766 66.078,172.625 66.354,172.199 66.465 C 171.791 66.572,171.631 66.852,171.631 67.461 C 171.631 67.927,171.458 68.375,171.246 68.456 C 171.035 68.537,170.788 69.153,170.698 69.824 C 170.608 70.495,170.334 71.190,170.090 71.369 C 169.845 71.548,169.645 72.080,169.645 72.551 C 169.645 73.183,169.489 73.450,169.051 73.564 C 168.552 73.695,168.488 73.860,168.648 74.590 C 168.814 75.344,168.760 75.461,168.249 75.461 C 167.772 75.461,167.660 75.638,167.660 76.391 C 167.660 76.970,167.445 77.504,167.092 77.807 C 166.723 78.123,166.525 78.643,166.525 79.297 C 166.525 79.928,166.367 80.362,166.099 80.465 C 165.837 80.566,165.674 80.997,165.674 81.591 C 165.674 82.364,165.562 82.553,165.106 82.553 C 164.650 82.553,164.539 82.742,164.539 83.516 C 164.539 84.110,164.376 84.541,164.113 84.642 C 163.595 84.841,163.533 86.510,164.043 86.558 C 164.238 86.577,164.014 86.673,163.546 86.773 C 162.766 86.938,162.688 87.063,162.610 88.270 C 162.542 89.318,162.406 89.618,161.945 89.738 C 161.468 89.863,161.397 90.038,161.548 90.724 C 161.699 91.410,161.628 91.584,161.149 91.710 C 160.699 91.827,160.567 92.092,160.567 92.881 C 160.567 93.560,160.436 93.901,160.175 93.901 C 159.745 93.901,159.443 94.743,159.436 95.957 C 159.434 96.460,159.281 96.738,159.007 96.738 C 158.713 96.738,158.582 97.033,158.582 97.697 C 158.582 98.419,158.441 98.694,158.014 98.806 C 157.580 98.919,157.447 99.193,157.447 99.973 C 157.447 100.691,157.321 100.993,157.021 100.993 C 156.700 100.993,156.596 101.340,156.596 102.411 C 156.596 103.641,156.520 103.830,156.028 103.830 C 155.569 103.830,155.461 104.019,155.461 104.823 C 155.461 105.495,155.330 105.816,155.055 105.816 C 154.551 105.816,154.227 106.758,154.468 107.518 C 154.609 107.960,154.519 108.085,154.062 108.085 C 153.547 108.085,153.475 108.259,153.475 109.504 C 153.475 110.733,153.400 110.922,152.908 110.922 C 152.452 110.922,152.340 111.111,152.340 111.885 C 152.340 112.478,152.177 112.910,151.915 113.010 C 151.648 113.113,151.489 113.547,151.489 114.175 C 151.489 114.843,151.357 115.177,151.094 115.177 C 150.599 115.177,150.355 115.795,150.355 117.044 C 150.355 117.717,150.224 118.014,149.929 118.014 C 149.635 118.014,149.504 118.310,149.504 118.974 C 149.504 119.695,149.363 119.971,148.936 120.082 C 148.523 120.190,148.369 120.469,148.369 121.108 C 148.369 121.621,148.122 122.233,147.775 122.580 C 147.308 123.047,147.220 123.381,147.362 124.140 C 147.520 124.983,147.470 125.106,146.963 125.106 C 146.497 125.106,146.383 125.289,146.383 126.031 C 146.383 126.648,146.194 127.073,145.816 127.310 C 145.401 127.569,145.248 127.972,145.248 128.806 C 145.248 129.558,145.103 130.002,144.823 130.110 C 144.564 130.209,144.397 130.638,144.397 131.203 C 144.397 131.894,144.252 132.170,143.830 132.281 C 143.415 132.389,143.262 132.668,143.262 133.316 C 143.262 133.842,143.090 134.269,142.837 134.365 C 142.539 134.480,142.411 134.945,142.411 135.917 C 142.411 137.116,142.334 137.305,141.844 137.305 C 141.385 137.305,141.277 137.494,141.277 138.298 C 141.277 138.986,141.147 139.291,140.856 139.291 C 140.305 139.291,139.984 140.603,140.410 141.117 C 140.678 141.439,140.616 141.534,140.087 141.609 C 139.586 141.680,139.412 141.910,139.346 142.593 C 139.199 144.106,138.156 143.557,138.156 141.967 C 138.156 141.204,138.004 140.651,137.755 140.511 C 137.535 140.386,137.311 139.901,137.259 139.433 C 137.187 138.792,137.021 138.585,136.588 138.597 C 136.097 138.611,136.030 138.470,136.128 137.627 C 136.204 136.977,136.101 136.538,135.824 136.335 C 135.594 136.166,135.314 135.422,135.203 134.681 C 135.069 133.791,134.862 133.333,134.593 133.333 C 134.315 133.333,134.184 133.015,134.184 132.340 C 134.184 131.537,134.076 131.348,133.617 131.348 C 133.147 131.348,133.050 131.158,133.050 130.243 C 133.050 129.523,132.902 129.082,132.624 128.975 C 132.341 128.867,132.199 128.420,132.199 127.642 C 132.199 126.710,132.083 126.441,131.631 126.323 C 131.205 126.212,131.064 125.936,131.064 125.215 C 131.064 124.551,130.933 124.255,130.638 124.255 C 130.341 124.255,130.213 123.956,130.213 123.262 C 130.213 122.648,129.997 122.053,129.645 121.702 C 129.294 121.351,129.078 120.757,129.078 120.142 C 129.078 119.448,128.950 119.149,128.652 119.149 C 128.366 119.149,128.227 118.862,128.227 118.271 C 128.227 117.632,128.073 117.353,127.660 117.245 C 127.215 117.129,127.092 116.858,127.092 115.995 C 127.092 115.272,126.897 114.699,126.525 114.326 C 126.210 114.011,125.957 113.381,125.957 112.908 C 125.957 112.340,125.816 112.057,125.532 112.057 C 125.235 112.057,125.106 111.757,125.106 111.064 C 125.106 110.260,124.998 110.071,124.539 110.071 C 124.047 110.071,123.972 109.882,123.972 108.644 C 123.972 107.637,123.846 107.168,123.546 107.053 C 123.299 106.958,123.121 106.534,123.121 106.042 C 123.121 105.434,122.961 105.153,122.553 105.047 C 122.127 104.935,121.986 104.660,121.986 103.939 C 121.986 103.315,121.850 102.979,121.597 102.979 C 121.345 102.979,121.156 102.513,121.059 101.648 C 120.975 100.903,120.709 100.172,120.454 99.986 C 120.204 99.803,120.000 99.253,120.000 98.763 C 120.000 98.061,119.880 97.872,119.433 97.872 C 118.973 97.872,118.865 97.683,118.865 96.879 C 118.865 96.186,118.737 95.887,118.440 95.887 C 118.132 95.887,118.014 95.571,118.014 94.752 C 118.014 93.995,117.825 93.428,117.447 93.050 C 117.132 92.734,116.879 92.104,116.879 91.631 C 116.879 91.064,116.738 90.780,116.454 90.780 C 116.157 90.780,116.028 90.481,116.028 89.787 C 116.028 88.983,115.920 88.794,115.461 88.794 C 114.980 88.794,114.894 88.605,114.894 87.552 C 114.894 86.836,114.726 86.172,114.498 85.982 C 114.280 85.801,114.019 85.211,113.918 84.671 C 113.808 84.084,113.567 83.688,113.320 83.688 C 113.038 83.688,112.908 83.375,112.908 82.695 C 112.908 81.891,112.800 81.702,112.340 81.702 C 111.868 81.702,111.773 81.513,111.773 80.567 C 111.773 79.748,111.655 79.433,111.348 79.433 C 111.050 79.433,110.922 79.133,110.922 78.440 C 110.922 77.825,110.706 77.231,110.355 76.879 C 110.039 76.564,109.787 75.934,109.787 75.461 C 109.787 74.894,109.645 74.610,109.362 74.610 C 109.066 74.610,108.936 74.313,108.936 73.636 C 108.936 72.911,108.791 72.616,108.369 72.482 C 107.947 72.348,107.801 72.053,107.801 71.328 C 107.801 70.694,107.666 70.355,107.413 70.355 C 107.172 70.355,106.965 69.903,106.865 69.159 C 106.776 68.501,106.504 67.817,106.260 67.638 C 106.016 67.460,105.816 66.927,105.816 66.456 C 105.816 65.837,105.658 65.557,105.248 65.450 C 104.814 65.336,104.681 65.063,104.681 64.282 C 104.681 63.565,104.555 63.262,104.255 63.262 C 103.958 63.262,103.830 62.963,103.830 62.270 C 103.830 61.466,103.722 61.277,103.262 61.277 C 102.803 61.277,102.695 61.087,102.695 60.284 C 102.695 59.590,102.567 59.291,102.270 59.291 C 101.972 59.291,101.844 58.991,101.844 58.298 C 101.844 57.683,101.628 57.089,101.277 56.738 C 100.959 56.420,100.709 55.792,100.709 55.310 C 100.709 54.808,100.532 54.382,100.284 54.287 C 100.050 54.197,99.856 53.850,99.854 53.516 C 99.846 52.399,99.402 52.001,98.661 52.445 C 98.158 52.746,98.093 52.749,98.369 52.459 C 98.976 51.819,98.824 50.213,98.156 50.213 C 97.697 50.213,97.589 50.024,97.589 49.220 C 97.589 48.526,97.460 48.227,97.163 48.227 C 96.872 48.227,96.738 47.935,96.738 47.302 C 96.738 46.685,96.549 46.260,96.170 46.023 C 95.785 45.783,95.603 45.362,95.603 44.713 C 95.603 44.188,95.425 43.610,95.207 43.429 C 94.989 43.248,94.728 42.658,94.627 42.118 C 94.517 41.531,94.276 41.135,94.030 41.135 C 93.747 41.135,93.617 40.822,93.617 40.142 C 93.617 39.448,93.489 39.149,93.191 39.149 C 92.926 39.149,92.766 38.881,92.766 38.437 C 92.766 38.045,92.511 37.506,92.199 37.239 C 91.876 36.963,91.631 36.402,91.631 35.939 C 91.631 35.363,91.465 35.081,91.064 34.976 C 90.637 34.864,90.496 34.589,90.496 33.868 C 90.496 33.204,90.365 32.908,90.071 32.908 C 89.774 32.908,89.645 32.608,89.645 31.915 C 89.645 31.111,89.537 30.922,89.078 30.922 C 88.619 30.922,88.511 30.733,88.511 29.929 C 88.511 29.236,88.382 28.936,88.085 28.936 C 87.788 28.936,87.660 28.637,87.660 27.943 C 87.660 27.139,87.552 26.950,87.092 26.950 C 86.633 26.950,86.525 26.761,86.525 25.957 C 86.525 25.264,86.396 24.965,86.099 24.965 C 85.803 24.965,85.674 24.666,85.674 23.982 C 85.674 23.289,85.506 22.909,85.106 22.695 C 84.752 22.505,84.539 22.101,84.539 21.619 C 84.539 21.153,84.313 20.705,83.972 20.491 C 83.660 20.296,83.404 19.833,83.404 19.461 C 83.404 19.089,83.213 18.711,82.979 18.621 C 82.741 18.530,82.553 18.108,82.553 17.666 C 82.553 17.181,82.333 16.737,81.986 16.520 C 81.674 16.325,81.418 15.902,81.418 15.580 C 81.418 15.258,81.227 14.803,80.993 14.569 C 80.759 14.335,80.567 13.834,80.567 13.455 C 80.567 12.955,80.412 12.766,80.000 12.766 C 79.541 12.766,79.433 12.577,79.433 11.773 C 79.433 11.080,79.304 10.780,79.007 10.780 C 78.708 10.780,78.582 10.478,78.582 9.761 C 78.582 8.980,78.449 8.706,78.014 8.593 C 77.593 8.483,77.447 8.206,77.447 7.518 C 77.447 6.815,77.303 6.553,76.851 6.435 C 76.519 6.348,76.339 6.144,76.444 5.974 C 76.726 5.518,76.333 4.539,75.867 4.539 C 75.592 4.539,75.461 4.219,75.461 3.546 C 75.461 2.742,75.353 2.553,74.894 2.553 C 74.434 2.553,74.326 2.364,74.326 1.560 C 74.326 0.867,74.198 0.567,73.901 0.567 C 73.667 0.567,73.475 0.440,73.475 0.284 C 73.475 0.097,64.161 0.000,46.099 0.000 L 18.723 0.000 18.723 0.695 M102.734 178.922 C 102.407 179.052,102.407 179.118,102.734 179.347 C 103.054 179.571,103.050 179.599,102.713 179.507 C 102.097 179.341,102.005 178.720,102.600 178.746 C 102.950 178.761,102.994 178.819,102.734 178.922 " stroke="none" fill="#242424" fill-rule="evenodd"></path><path id="path3" d="M338.818 183.389 C 338.818 183.714,338.941 183.735,339.409 183.492 C 340.290 183.035,340.303 182.979,339.527 182.979 C 339.098 182.979,338.818 183.141,338.818 183.389 M366.698 185.368 C 366.783 185.590,367.032 185.841,367.252 185.925 C 367.581 186.051,367.590 185.980,367.303 185.521 C 366.902 184.879,366.468 184.769,366.698 185.368 M328.789 186.248 C 328.591 186.486,328.509 186.759,328.605 186.856 C 328.811 187.062,329.645 186.427,329.645 186.065 C 329.645 185.674,329.183 185.773,328.789 186.248 M369.078 186.089 C 369.078 186.240,369.333 186.500,369.645 186.667 C 370.270 187.001,370.408 186.692,369.872 186.156 C 369.462 185.746,369.078 185.714,369.078 186.089 M326.547 187.589 C 326.562 188.015,326.623 188.086,326.732 187.801 C 326.821 187.567,327.034 187.282,327.206 187.167 C 327.398 187.039,327.327 186.957,327.021 186.955 C 326.688 186.952,326.532 187.160,326.547 187.589 M320.867 190.608 C 320.526 191.246,320.728 191.364,321.416 190.929 C 321.735 190.728,321.759 190.581,321.513 190.336 C 321.268 190.090,321.108 190.158,320.867 190.608 M377.116 190.476 C 377.116 190.698,377.350 190.942,377.636 191.017 C 378.232 191.173,378.311 190.907,377.816 190.411 C 377.363 189.959,377.116 189.981,377.116 190.476 M381.702 193.759 C 381.985 194.071,382.378 194.326,382.576 194.326 C 382.775 194.326,382.996 194.550,383.067 194.823 C 383.185 195.274,383.200 195.271,383.230 194.796 C 383.248 194.494,383.023 194.210,382.695 194.125 C 382.383 194.043,382.128 193.800,382.128 193.584 C 382.128 193.368,381.916 193.191,381.658 193.191 C 381.236 193.191,381.240 193.249,381.702 193.759 M384.136 195.664 C 384.124 195.853,384.369 196.145,384.681 196.312 C 385.066 196.518,385.248 196.521,385.248 196.322 C 385.248 196.161,385.067 196.028,384.846 196.028 C 384.625 196.028,384.380 195.869,384.301 195.674 C 384.194 195.406,384.153 195.404,384.136 195.664 M307.680 202.715 C 307.170 203.225,307.167 203.269,307.631 203.358 C 308.261 203.480,308.444 203.297,308.323 202.667 C 308.234 202.203,308.189 202.206,307.680 202.715 M390.355 202.553 C 390.355 202.709,390.610 203.092,390.922 203.404 C 391.532 204.014,391.673 203.711,391.196 202.818 C 390.886 202.240,390.355 202.072,390.355 202.553 M305.674 205.674 C 305.175 206.224,305.178 206.241,305.772 206.241 C 306.194 206.241,306.383 206.066,306.383 205.674 C 306.383 205.362,306.339 205.106,306.285 205.106 C 306.231 205.106,305.956 205.362,305.674 205.674 M392.340 205.630 C 392.340 205.968,392.520 206.241,392.742 206.241 C 392.963 206.241,393.209 206.401,393.287 206.596 C 393.380 206.826,393.438 206.791,393.453 206.498 C 393.465 206.249,393.220 205.814,392.908 205.532 C 392.357 205.034,392.340 205.036,392.340 205.630 M300.674 215.461 C 300.654 215.539,300.620 215.699,300.598 215.816 C 300.577 215.933,300.449 216.201,300.316 216.411 C 300.119 216.722,300.187 216.734,300.675 216.472 C 301.285 216.146,301.513 215.319,300.993 215.319 C 300.837 215.319,300.693 215.383,300.674 215.461 M397.447 215.887 C 397.447 216.202,397.636 216.454,397.872 216.454 C 398.139 216.454,398.310 216.744,398.331 217.234 C 398.351 217.723,398.412 217.827,398.494 217.513 C 398.636 216.969,398.010 215.319,397.661 215.319 C 397.543 215.319,397.447 215.574,397.447 215.887 M299.463 218.888 C 299.155 219.690,299.267 219.891,299.848 219.580 C 300.175 219.405,300.338 219.109,300.243 218.861 C 300.032 218.312,299.679 218.324,299.463 218.888 M398.582 218.953 C 398.582 219.261,398.782 219.591,399.027 219.685 C 399.360 219.812,399.449 219.701,399.381 219.241 C 399.265 218.450,398.582 218.204,398.582 218.953 M298.450 223.244 C 297.972 224.136,298.114 224.440,298.723 223.830 C 299.035 223.518,299.291 223.135,299.291 222.979 C 299.291 222.498,298.759 222.665,298.450 223.244 M399.433 223.121 C 399.433 223.355,399.560 223.546,399.716 223.546 C 399.872 223.546,400.000 223.355,400.000 223.121 C 400.000 222.887,399.872 222.695,399.716 222.695 C 399.560 222.695,399.433 222.887,399.433 223.121 M298.195 242.643 C 298.152 243.526,298.591 244.539,299.017 244.539 C 299.448 244.539,299.336 243.482,298.887 243.310 C 298.665 243.225,298.427 242.860,298.359 242.500 C 298.250 241.929,298.228 241.948,298.195 242.643 M399.433 243.972 C 399.433 244.284,399.560 244.539,399.716 244.539 C 399.872 244.539,400.000 244.284,400.000 243.972 C 400.000 243.660,399.872 243.404,399.716 243.404 C 399.560 243.404,399.433 243.660,399.433 243.972 M299.344 247.869 C 299.462 248.480,300.426 248.718,300.426 248.136 C 300.426 247.907,300.224 247.643,299.977 247.548 C 299.311 247.292,299.240 247.328,299.344 247.869 M398.582 248.109 C 398.582 248.356,398.733 248.507,398.918 248.446 C 399.444 248.270,399.532 247.660,399.031 247.660 C 398.784 247.660,398.582 247.862,398.582 248.109 M300.505 251.083 C 300.528 251.388,300.671 251.597,300.823 251.546 C 301.288 251.391,301.325 250.859,300.882 250.689 C 300.594 250.579,300.476 250.702,300.505 251.083 M397.589 250.780 C 397.382 251.115,397.650 251.631,398.031 251.631 C 398.178 251.631,398.298 251.376,398.298 251.064 C 398.298 250.466,397.885 250.300,397.589 250.780 M395.934 255.402 C 395.648 255.694,395.466 255.986,395.529 256.049 C 395.732 256.252,396.678 255.422,396.564 255.141 C 396.503 254.992,396.220 255.109,395.934 255.402 M305.500 260.934 C 305.663 261.237,305.704 261.584,305.593 261.704 C 305.481 261.824,305.574 261.864,305.798 261.794 C 306.457 261.588,306.464 261.056,305.811 260.707 C 305.262 260.413,305.233 260.434,305.500 260.934 M392.661 261.090 C 392.488 261.299,392.429 261.555,392.532 261.657 C 392.865 261.990,393.070 261.856,393.113 261.277 C 393.164 260.609,393.087 260.577,392.661 261.090 M307.518 264.122 C 307.518 264.283,307.709 264.488,307.943 264.578 C 308.177 264.668,308.369 264.983,308.369 265.279 C 308.369 265.574,308.510 265.816,308.683 265.816 C 308.871 265.816,308.915 265.616,308.792 265.319 C 308.680 265.046,308.524 264.599,308.445 264.326 C 308.294 263.799,307.518 263.628,307.518 264.122 M390.220 264.667 C 389.711 265.650,389.690 265.816,390.071 265.816 C 390.227 265.816,390.355 265.560,390.355 265.248 C 390.355 264.933,390.544 264.681,390.780 264.681 C 391.014 264.681,391.206 264.489,391.206 264.255 C 391.206 263.554,390.682 263.773,390.220 264.667 M310.355 267.524 C 310.355 267.686,310.552 267.895,310.792 267.987 C 311.458 268.243,311.536 267.967,310.909 267.576 C 310.558 267.356,310.355 267.338,310.355 267.524 M384.113 271.279 C 384.113 271.528,383.890 271.790,383.617 271.861 C 383.152 271.983,383.152 271.993,383.626 272.024 C 384.139 272.057,384.614 271.328,384.290 271.004 C 384.193 270.907,384.113 271.031,384.113 271.279 M316.618 273.404 C 316.603 273.833,316.759 274.041,317.092 274.038 C 317.398 274.036,317.469 273.954,317.277 273.825 C 317.105 273.711,316.892 273.426,316.803 273.191 C 316.694 272.907,316.633 272.978,316.618 273.404 M320.567 276.302 C 320.567 276.556,321.456 277.163,321.828 277.163 C 321.917 277.163,321.831 276.908,321.636 276.596 C 321.271 276.011,320.567 275.817,320.567 276.302 M377.305 276.454 C 377.305 276.688,377.156 276.879,376.974 276.879 C 376.792 276.879,376.717 276.954,376.808 277.044 C 377.030 277.266,378.156 276.646,378.156 276.302 C 378.156 276.152,377.965 276.028,377.730 276.028 C 377.496 276.028,377.305 276.220,377.305 276.454 M322.558 277.518 C 322.555 277.851,322.763 278.007,323.191 277.992 C 323.618 277.977,323.689 277.916,323.404 277.807 C 323.170 277.718,322.885 277.505,322.770 277.333 C 322.642 277.141,322.560 277.212,322.558 277.518 M369.929 280.395 C 369.929 280.664,369.801 280.806,369.645 280.709 C 369.489 280.613,369.362 280.669,369.362 280.834 C 369.362 281.000,369.493 281.135,369.654 281.135 C 370.008 281.135,370.354 280.330,370.106 280.082 C 370.009 279.985,369.929 280.126,369.929 280.395 M331.064 281.408 C 331.064 281.735,332.008 282.277,332.535 282.252 C 332.740 282.242,332.621 282.118,332.270 281.977 C 331.918 281.836,331.631 281.589,331.631 281.428 C 331.631 281.267,331.504 281.135,331.348 281.135 C 331.191 281.135,331.064 281.258,331.064 281.408 M366.938 281.438 C 366.835 281.605,366.476 281.853,366.141 281.988 L 365.532 282.234 366.170 282.252 C 366.521 282.261,366.809 282.134,366.809 281.969 C 366.809 281.804,366.922 281.739,367.060 281.824 C 367.198 281.910,367.469 281.789,367.662 281.557 C 367.947 281.214,367.930 281.135,367.569 281.135 C 367.325 281.135,367.041 281.271,366.938 281.438 " stroke="none" fill="#f05050" fill-rule="evenodd"></path><path id="path4" d="" stroke="none" fill="#245450" fill-rule="evenodd"></path></g></svg>